{"glyphs":{"0":{"ha":1410,"x_min":0,"x_max":0,"o":"m 738 1042 l 700 1042 b 108 510 328 1042 108 804 b 700 -21 108 217 328 -21 l 738 -21 b 1311 510 1108 -19 1311 218 b 738 1042 1311 803 1108 1040 z m 735 29 l 700 29 b 311 510 439 29 311 244 b 700 992 311 776 439 992 l 735 992 b 1110 510 996 992 1110 776 b 735 29 1110 244 996 29 z "},"1":{"ha":657,"x_min":0,"x_max":0,"o":"m 551 0 l 551 50 l 456 50 l 456 1018 l 133 990 l 133 938 l 254 947 l 254 50 l 150 50 l 150 0 z "},"2":{"ha":1346,"x_min":0,"x_max":0,"o":"m 297 790 b 714 960 467 917 606 960 b 1004 772 907 960 1004 824 l 1004 761 b 168 49 1004 461 328 150 l 168 0 l 1217 0 l 1217 167 l 1167 167 l 1157 49 l 476 49 l 499 60 b 1175 722 629 129 1175 415 b 817 1022 1175 986 925 1022 l 794 1022 b 269 844 468 1022 269 844 z "},"3":{"ha":1201,"x_min":0,"x_max":0,"o":"m 1099 289 b 882 538 1099 408 996 500 b 1058 772 961 572 1058 654 l 1058 790 b 743 1018 1058 938 892 1018 l 106 1018 l 106 833 l 153 833 l 165 968 l 685 968 b 888 754 817 968 888 864 b 699 558 888 656 797 558 l 199 558 l 199 510 l 721 510 b 928 289 856 510 928 389 l 928 268 b 663 50 928 160 819 50 l 168 50 l 153 185 l 106 185 l 106 0 l 765 0 b 1099 268 919 0 1099 100 z "},"4":{"ha":1313,"x_min":0,"x_max":0,"o":"m 1139 0 l 1139 50 l 1021 50 l 1021 250 l 1160 250 l 1160 300 l 1021 300 l 1021 1074 l 56 250 l 819 250 l 819 50 l 692 50 l 692 0 z m 192 300 l 819 838 l 819 300 z "},"5":{"ha":1244,"x_min":0,"x_max":0,"o":"m 564 657 b 233 569 564 657 365 657 l 258 815 l 1014 815 l 1082 1017 l 231 1017 l 178 497 l 204 483 b 233 513 214 494 225 504 b 540 613 307 576 418 613 b 936 329 757 613 931 492 l 936 321 b 561 31 925 94 747 31 b 206 93 428 31 290 64 l 207 221 l 157 224 l 147 71 b 581 -12 301 13 449 -12 b 1139 319 907 -12 1139 140 b 564 657 1139 568 936 656 z "},"6":{"ha":1419,"x_min":0,"x_max":0,"o":"m 728 668 b 338 528 728 668 456 668 b 310 489 333 522 321 506 l 310 504 b 476 900 310 640 346 803 b 807 1003 606 996 746 1003 b 1089 935 938 1003 1038 961 b 1121 983 1100 950 1110 967 b 761 1042 993 1024 872 1042 b 106 518 369 1042 106 813 b 697 -8 106 115 325 -8 l 754 -8 b 1304 331 1076 -8 1304 139 b 728 668 1304 579 1100 667 z m 1101 332 b 728 42 1089 107 913 43 b 686 43 699 42 693 43 b 315 376 553 43 315 149 b 317 401 315 385 315 393 b 706 624 358 538 517 624 b 1101 340 921 624 1096 503 z "},"7":{"ha":1157,"x_min":0,"x_max":0,"o":"m 117 1018 l 117 740 l 167 740 l 167 831 l 957 831 l 356 -69 l 415 -69 l 1136 1018 z "},"8":{"ha":1500,"x_min":0,"x_max":0,"o":"m 1375 290 b 1154 540 1375 411 1269 503 b 1313 739 1243 576 1313 643 l 1313 757 b 997 1019 1313 910 1151 1019 l 413 1019 b 97 792 264 1019 97 939 l 97 774 b 263 544 97 671 168 589 b 35 292 142 511 35 422 l 35 271 b 368 1 35 110 219 1 l 1042 1 b 1375 269 1196 1 1375 101 z m 413 50 b 206 271 278 50 206 171 l 206 292 b 471 511 206 400 331 511 l 997 511 b 1204 290 1132 511 1204 390 l 1204 269 b 939 51 1204 161 1079 51 l 549 51 z m 449 560 b 268 756 353 564 268 660 l 268 775 b 471 971 268 865 339 971 l 953 971 b 1142 775 1051 971 1142 874 l 1142 756 b 939 561 1142 665 1071 561 z "},"9":{"ha":1406,"x_min":0,"x_max":0,"o":"m 683 363 b 1074 503 683 363 956 363 b 1101 542 1078 508 1090 525 l 1101 526 b 935 131 1101 390 1065 228 b 604 28 806 35 665 28 b 322 96 474 28 374 69 b 290 47 311 81 301 64 b 650 -11 418 7 539 -11 b 1306 513 1042 -11 1306 218 b 728 1039 1306 915 1100 1039 l 671 1039 b 135 700 349 1039 135 892 b 683 363 135 451 311 364 z m 338 699 b 697 989 350 924 513 988 b 739 988 726 989 732 988 b 1096 654 872 988 1096 882 b 1094 629 1096 646 1096 638 b 706 407 1053 493 894 407 b 338 690 490 407 343 528 z "}," ":{"ha":579,"x_min":0,"x_max":0,"o":""},".":{"ha":336,"x_min":0,"x_max":0,"o":"m 107 61 b 168 0 107 28 135 0 b 235 61 207 0 235 28 b 168 128 235 99 207 128 b 107 61 135 128 107 99 z "},":":{"ha":360,"x_min":0,"x_max":0,"o":"m 115 228 b 176 167 115 194 143 167 b 243 228 215 167 243 194 b 176 294 243 265 215 294 b 115 228 143 294 115 265 z m 115 686 b 176 625 115 653 143 625 b 243 686 215 625 243 653 b 176 753 243 724 215 753 b 115 686 143 753 115 724 z "},"A":{"ha":1678,"x_min":0,"x_max":0,"o":"m 93 0 l 449 0 l 449 50 l 303 50 l 429 285 l 1132 285 l 1264 50 l 1149 50 l 1149 0 l 1617 0 l 1617 50 l 1492 50 l 946 1018 l 750 1018 l 242 50 l 93 50 z m 771 942 l 1100 346 l 457 346 z "},"B":{"ha":1543,"x_min":0,"x_max":0,"o":"m 1408 289 b 1178 542 1408 414 1297 507 b 1346 772 1272 586 1346 669 l 1346 790 b 1031 1018 1346 938 1179 1018 l 113 1018 l 113 968 l 226 968 l 226 50 l 113 50 l 113 0 l 1075 0 b 1408 268 1229 0 1408 100 z m 429 50 l 429 510 l 1031 510 b 1238 289 1165 510 1238 389 l 1238 268 b 972 50 1238 160 1113 50 z m 429 558 l 429 968 l 972 968 b 1175 774 1104 968 1175 864 l 1175 754 b 986 558 1175 656 1085 558 z "},"C":{"ha":1456,"x_min":0,"x_max":0,"o":"m 1240 210 b 846 47 1140 110 1010 47 b 299 528 544 47 299 263 b 846 1010 299 794 544 1010 b 1240 847 1010 1010 1140 947 l 1288 847 l 1288 1061 l 1240 1061 l 1225 925 b 794 1061 1104 1017 975 1061 b 97 528 424 1061 97 822 b 794 -4 97 235 424 -4 b 1225 131 975 -4 1104 39 l 1240 -4 l 1288 -4 l 1288 210 z "},"D":{"ha":1688,"x_min":0,"x_max":0,"o":"m 999 0 b 1567 508 1267 0 1567 232 b 1014 1018 1567 818 1294 1018 l 83 1018 l 83 968 l 228 968 l 228 50 l 83 50 l 83 0 z m 1364 508 b 1014 50 1364 285 1183 50 l 429 50 l 429 968 l 1014 968 b 1364 508 1221 968 1364 733 z "},"E":{"ha":1432,"x_min":0,"x_max":0,"o":"m 926 550 l 413 550 l 413 968 l 1167 968 l 1181 826 l 1229 826 l 1229 1018 l 124 1018 l 124 968 l 211 968 l 211 50 l 121 50 l 121 0 l 1229 0 l 1229 190 l 1181 190 l 1167 50 l 413 50 l 413 500 l 926 500 l 940 381 l 990 381 l 990 660 l 940 660 z "},"F":{"ha":1324,"x_min":0,"x_max":0,"o":"m 935 385 l 935 660 l 883 660 l 869 550 l 357 550 l 357 968 l 1111 968 l 1125 826 l 1174 826 l 1174 1018 l 61 1018 l 61 968 l 156 968 l 156 50 l 61 50 l 61 0 l 446 0 l 446 50 l 357 50 l 357 500 l 869 500 l 883 385 z "},"H":{"ha":1596,"x_min":0,"x_max":0,"o":"m 493 0 l 493 50 l 389 50 l 389 492 l 1165 492 l 1165 50 l 1069 50 l 1069 0 l 1485 0 l 1485 50 l 1367 50 l 1367 968 l 1485 968 l 1485 1018 l 1068 1018 l 1068 968 l 1165 968 l 1165 542 l 389 542 l 389 968 l 493 968 l 493 1018 l 76 1018 l 76 968 l 188 968 l 188 50 l 78 50 l 78 0 z "},"I":{"ha":721,"x_min":0,"x_max":0,"o":"m 188 1018 l 188 968 l 285 968 l 285 50 l 189 50 l 189 0 l 590 0 l 590 50 l 486 50 l 486 968 l 590 968 l 590 1018 z "},"J":{"ha":954,"x_min":0,"x_max":0,"o":"m 215 254 b 136 333 215 297 181 333 b 57 254 93 333 57 297 l 57 242 b 375 -10 57 185 78 -10 b 765 315 714 -10 765 279 l 765 968 l 897 968 l 897 1018 l 425 1018 l 425 968 l 564 968 l 564 315 b 365 40 564 211 514 40 b 128 175 211 40 151 113 l 136 175 b 215 254 181 175 215 211 z "},"K":{"ha":1504,"x_min":0,"x_max":0,"o":"m 1300 50 l 717 632 l 1158 968 l 1311 968 l 1311 1018 l 942 1018 l 942 968 l 1090 968 l 414 460 l 414 968 l 518 968 l 518 1018 l 115 1018 l 115 968 l 213 968 l 213 50 l 117 50 l 117 0 l 518 0 l 518 50 l 414 50 l 414 403 l 554 510 l 1004 50 l 899 50 l 899 0 l 1413 0 l 1413 50 z "},"L":{"ha":1322,"x_min":0,"x_max":0,"o":"m 114 0 l 1225 0 l 1225 221 l 1175 221 l 1153 50 l 435 50 l 435 968 l 539 968 l 539 1018 l 114 1018 l 114 968 l 233 968 l 233 50 l 114 50 z "},"M":{"ha":1910,"x_min":0,"x_max":0,"o":"m 1779 968 l 1779 1018 l 1468 1018 l 911 93 l 340 1018 l 42 1018 l 42 968 l 168 968 l 168 50 l 42 50 l 42 0 l 335 0 l 335 50 l 218 50 l 218 889 l 757 0 l 924 0 l 1474 915 l 1474 50 l 1364 50 l 1364 0 l 1793 0 l 1793 50 l 1675 50 l 1675 968 z "},"N":{"ha":1628,"x_min":0,"x_max":0,"o":"m 126 968 l 222 968 l 222 50 l 83 50 l 83 0 l 422 0 l 422 50 l 283 50 l 283 936 l 1125 0 l 1367 0 l 1367 968 l 1506 968 l 1506 1018 l 1167 1018 l 1167 968 l 1306 968 l 1306 68 l 451 1018 l 126 1018 z "},"O":{"ha":1818,"x_min":0,"x_max":0,"o":"m 1017 1040 l 757 1040 b 82 508 385 1040 82 803 b 757 -22 82 215 385 -22 l 1017 -22 b 1688 508 1388 -21 1688 217 b 1017 1040 1688 801 1388 1039 z m 1014 28 l 757 28 b 285 508 496 28 285 243 b 757 990 285 775 496 990 l 1014 990 b 1486 508 1275 990 1486 775 b 1014 28 1486 243 1275 28 z "},"P":{"ha":1454,"x_min":0,"x_max":0,"o":"m 1015 414 l 413 414 l 413 968 l 1015 968 b 1221 713 1064 968 1221 953 l 1221 669 b 1025 415 1221 429 1072 419 b 1015 414 1021 415 1018 414 z m 1015 364 b 1392 669 1050 364 1392 364 l 1392 710 b 1021 1018 1392 1007 1068 1018 l 115 1018 l 115 968 l 211 968 l 211 50 l 115 50 l 115 0 l 517 0 l 517 50 l 413 50 l 413 364 z "},"Q":{"ha":1842,"x_min":0,"x_max":0,"o":"m 1699 531 b 1028 1063 1699 824 1399 1061 l 796 1063 b 121 531 424 1063 121 825 b 796 0 121 238 424 0 l 965 0 l 1119 -183 l 1314 -183 l 1153 10 b 1699 531 1464 57 1699 272 z m 1111 58 l 939 265 l 744 265 l 924 50 l 796 50 b 324 531 535 50 324 265 b 796 1013 324 797 535 1013 l 1025 1013 b 1497 531 1286 1013 1497 797 b 1111 58 1497 296 1332 99 z "},"R":{"ha":1613,"x_min":0,"x_max":0,"o":"m 1017 968 b 1215 710 1063 967 1215 943 l 1215 669 b 1010 417 1215 429 1071 417 l 407 417 l 407 968 z m 1029 367 b 1386 669 1110 369 1386 394 l 1386 710 b 1015 1018 1386 1007 1063 1018 l 96 1018 l 96 968 l 206 968 l 206 50 l 96 50 l 96 0 l 517 0 l 517 50 l 407 50 l 407 367 l 797 367 l 1154 0 l 1443 0 l 1443 50 l 1336 50 z "},"S":{"ha":1401,"x_min":0,"x_max":0,"o":"m 1239 315 b 919 610 1239 488 1053 610 l 408 610 b 278 764 340 610 278 697 l 278 772 b 485 971 278 811 289 971 l 1146 971 l 1156 839 l 1204 839 l 1204 1021 l 469 1021 b 107 701 361 1021 107 965 b 411 407 107 535 253 407 l 938 407 b 1068 253 1006 407 1068 319 l 1068 244 b 861 50 1068 207 1057 50 l 181 50 l 157 207 l 107 207 l 107 0 l 869 0 b 1239 315 972 0 1239 47 z "},"T":{"ha":1329,"x_min":0,"x_max":0,"o":"m 847 0 l 847 50 l 743 50 l 743 968 l 1192 968 l 1207 825 l 1257 825 l 1257 1018 l 28 1018 l 28 825 l 78 825 l 90 968 l 542 968 l 542 50 l 428 50 l 428 0 z "},"U":{"ha":1638,"x_min":0,"x_max":0,"o":"m 1119 968 l 1240 968 l 1240 368 b 810 50 1240 318 1221 50 b 379 365 401 50 379 307 l 379 968 l 499 968 l 499 1018 l 56 1018 l 56 968 l 178 968 l 178 376 b 803 0 178 17 772 0 l 815 0 b 1442 376 889 0 1442 29 l 1442 968 l 1575 968 l 1575 1018 l 1119 1018 z "},"V":{"ha":1400,"x_min":0,"x_max":0,"o":"m 1550 1018 l 1222 1018 l 1222 968 l 1342 968 l 869 78 l 379 968 l 467 968 l 467 1018 l 49 1018 l 49 968 l 151 968 l 697 0 l 908 0 l 1417 968 l 1550 968 z "},"W":{"ha":2365,"x_min":0,"x_max":0,"o":"m 811 78 l 363 968 l 450 968 l 450 1018 l 32 1018 l 32 968 l 135 968 l 639 0 l 850 0 l 1207 742 l 1593 0 l 1804 0 l 2271 968 l 2404 968 l 2404 1018 l 2076 1018 l 2076 968 l 2196 968 l 1765 78 l 1293 1018 l 1267 1018 z "},"X":{"ha":1475,"x_min":0,"x_max":0,"o":"m 1239 968 l 1411 968 l 1411 1018 l 964 1018 l 964 968 l 1163 968 l 789 572 l 403 968 l 501 968 l 501 1018 l -1 1018 l -1 968 l 146 968 l 574 529 l 125 50 l -1 50 l -1 0 l 446 0 l 446 50 l 201 50 l 614 489 l 1042 50 l 922 50 l 922 0 l 1411 0 l 1411 50 l 1299 50 l 829 531 z "},"Y":{"ha":1446,"x_min":0,"x_max":0,"o":"m 1433 968 l 1433 1018 l 1064 1018 l 1064 968 l 1214 968 l 794 433 l 374 968 l 474 968 l 474 1018 l 10 1018 l 10 968 l 140 968 l 613 325 l 613 50 l 492 50 l 492 0 l 936 0 l 936 50 l 817 50 l 817 386 l 1271 968 z "},"Z":{"ha":1421,"x_min":0,"x_max":0,"o":"m 1235 194 l 1207 50 l 389 50 l 1251 968 l 1251 1018 l 118 1018 l 118 825 l 167 825 l 188 968 l 972 968 l 108 50 l 108 0 l 1283 0 l 1283 194 z "},"[":{"ha":646,"x_min":0,"x_max":0,"o":"m 111 1132 l 111 -139 l 486 -139 l 486 -89 l 313 -89 l 313 1082 l 488 1082 l 488 1132 z "},"]":{"ha":635,"x_min":0,"x_max":0,"o":"m 111 1132 l 111 1082 l 286 1082 l 286 -89 l 113 -89 l 113 -139 l 488 -139 l 488 1132 z "},"^":{"ha":1157,"x_min":0,"x_max":0,"o":"m 568 1093 b 329 928 563 1089 338 933 l 364 886 l 568 1032 l 771 886 l 806 928 z "},"`":{"ha":1157,"x_min":0,"x_max":0,"o":"m 507 1304 l 456 1258 l 632 1078 l 669 1110 z "},"a":{"ha":1649,"x_min":0,"x_max":0,"o":"m 1457 50 l 911 1018 l 715 1018 l 207 50 l 58 50 l 58 0 l 386 0 l 386 50 l 268 50 l 397 294 b 547 358 451 342 499 358 b 696 328 593 358 640 344 b 893 290 754 310 821 290 b 1072 333 956 290 1014 304 l 1229 50 l 1128 50 l 1128 0 l 1568 0 l 1568 50 z m 893 340 b 710 375 831 340 769 357 b 547 408 654 392 600 408 l 540 408 b 444 385 507 407 475 400 l 736 942 l 1047 378 b 893 340 997 353 946 340 z "},"b":{"ha":1529,"x_min":0,"x_max":0,"o":"m 1158 542 b 1326 772 1253 586 1326 669 l 1326 790 b 1011 1018 1326 938 1160 1018 l 107 1018 l 107 968 l 207 968 l 207 50 l 107 50 l 107 0 l 1056 0 b 1389 268 1210 0 1389 100 l 1389 289 b 1158 542 1389 414 1278 507 z m 953 968 b 1156 774 1085 968 1156 864 l 1156 754 b 1097 621 1156 706 1133 657 b 899 547 1054 578 983 551 b 551 615 758 553 657 615 b 410 571 506 615 460 604 l 410 968 z m 1218 268 b 953 50 1218 160 1093 50 l 410 50 l 410 507 b 553 565 461 550 506 565 b 700 535 599 565 646 551 b 906 497 765 515 836 497 b 999 510 938 497 968 501 l 1011 510 b 1218 289 1146 510 1218 389 z "},"c":{"ha":1465,"x_min":0,"x_max":0,"o":"m 1256 210 b 861 47 1156 110 1025 47 b 314 528 560 47 314 263 b 861 1010 314 794 560 1010 b 1256 847 1025 1010 1156 947 l 1303 847 l 1303 1061 l 1256 1061 l 1240 925 b 810 1061 1119 1017 990 1061 b 113 528 439 1061 113 822 b 810 -4 113 235 439 -4 b 1240 131 990 -4 1119 39 l 1256 -4 l 1303 -4 l 1303 210 z "},"d":{"ha":1688,"x_min":0,"x_max":0,"o":"m 929 0 b 1567 508 1265 0 1567 232 b 1014 1018 1567 818 1294 1018 l 83 1018 l 83 968 l 228 968 l 228 50 l 83 50 l 83 0 z m 1364 508 b 956 50 1364 285 1161 50 l 429 50 l 429 968 l 1014 968 b 1364 508 1221 968 1364 733 z "},"f":{"ha":1318,"x_min":0,"x_max":0,"o":"m 161 1018 l 161 968 l 256 968 l 256 50 l 161 50 l 161 0 l 546 0 l 546 50 l 457 50 l 457 507 b 522 515 479 513 500 515 b 853 460 626 515 726 460 b 1004 483 899 460 953 465 l 1013 369 l 1061 369 l 1061 649 l 1011 649 l 1004 542 b 851 511 947 519 897 511 b 525 565 732 511 636 565 b 457 558 503 565 481 564 l 457 968 l 1210 968 l 1225 826 l 1274 826 l 1274 1018 z "},"i":{"ha":713,"x_min":0,"x_max":0,"o":"m 129 1018 l 129 968 l 226 968 l 226 50 l 131 50 l 131 0 l 532 0 l 532 50 l 428 50 l 428 968 l 532 968 l 532 1018 z "},"k":{"ha":1506,"x_min":0,"x_max":0,"o":"m 1332 50 l 853 626 b 1000 715 903 650 953 678 b 1185 968 1076 775 1147 872 l 1336 968 l 1336 1018 l 967 1018 l 967 968 l 1131 968 b 969 754 1094 888 1032 804 b 769 643 907 704 835 672 l 757 638 b 546 521 686 607 611 572 b 439 404 503 488 468 449 l 439 968 l 543 968 l 543 1018 l 140 1018 l 140 968 l 238 968 l 238 50 l 142 50 l 142 0 l 543 0 l 543 50 l 439 50 l 439 292 b 576 481 469 371 515 432 b 651 531 600 500 625 515 l 1038 50 l 924 50 l 924 0 l 1438 0 l 1438 50 z "},"l":{"ha":1157,"x_min":0,"x_max":0,"o":"m 126 0 l 1144 0 l 1144 221 l 1094 221 l 1072 50 l 424 50 l 424 968 l 528 968 l 528 1018 l 126 1018 l 126 968 l 222 968 l 222 50 l 126 50 z "},"m":{"ha":2738,"x_min":0,"x_max":0,"o":"m 2156 0 l 2611 0 l 2611 50 l 2478 50 l 2478 669 b 1865 1046 2478 1017 1939 1046 l 1853 1046 b 1328 886 1829 1046 1499 1036 b 801 1046 1165 1029 854 1046 l 789 1046 b 178 669 758 1046 178 1029 l 178 50 l 56 50 l 56 0 l 499 0 l 499 50 l 379 50 l 379 681 b 796 996 379 739 388 996 b 1226 678 1207 996 1226 728 l 1226 50 l 1106 50 l 1106 0 l 1556 0 l 1556 50 l 1429 50 l 1429 678 b 1860 996 1429 736 1451 996 b 2276 678 2271 996 2276 728 l 2276 50 l 2156 50 z "},"n":{"ha":1675,"x_min":0,"x_max":0,"o":"m 1119 0 l 1575 0 l 1575 50 l 1442 50 l 1442 669 b 815 1046 1442 1017 889 1046 l 803 1046 b 178 669 772 1046 178 1029 l 178 50 l 56 50 l 56 0 l 499 0 l 499 50 l 379 50 l 379 681 b 810 996 379 739 401 996 b 1240 678 1221 996 1240 728 l 1240 50 l 1119 50 z "},"o":{"ha":1824,"x_min":0,"x_max":0,"o":"m 1017 1040 l 757 1040 b 82 508 385 1040 82 803 b 757 -22 82 215 385 -22 l 1017 -22 b 1688 508 1388 -21 1688 217 b 1017 1040 1688 801 1388 1039 z m 1014 28 l 757 28 b 285 508 496 28 285 243 b 757 990 285 775 496 990 l 1014 990 b 1486 508 1275 990 1486 775 b 1014 28 1486 243 1275 28 z m 815 529 b 876 468 815 496 843 468 b 943 529 915 468 943 496 b 876 596 943 567 915 596 b 815 529 843 596 815 567 z "},"p":{"ha":1518,"x_min":0,"x_max":0,"o":"m 121 1018 l 121 968 l 217 968 l 217 50 l 121 50 l 121 0 l 522 0 l 522 50 l 418 50 l 418 385 b 568 428 472 417 521 428 b 964 350 690 428 799 350 l 983 350 b 1397 669 1018 350 1397 364 l 1397 710 b 1026 1018 1397 1007 1074 1018 z m 1226 710 l 1226 669 b 1021 403 1226 410 1051 414 b 965 399 1001 400 983 399 b 564 476 819 399 699 476 b 418 442 517 476 469 467 l 418 968 l 1021 968 b 1226 710 1069 968 1226 953 z "},"q":{"ha":1847,"x_min":0,"x_max":0,"o":"m 1013 0 b 1683 531 1383 1 1683 239 b 1013 1063 1683 824 1383 1061 l 781 1063 b 106 531 408 1063 106 825 b 781 0 106 238 408 0 l 822 0 l 551 -293 l 1411 -293 l 1411 -92 l 801 -92 l 886 0 z m 781 50 b 308 531 519 50 308 265 b 781 1013 308 797 519 1013 l 1010 1013 b 1482 531 1271 1013 1482 797 b 1010 50 1482 265 1271 50 z "},"r":{"ha":1583,"x_min":0,"x_max":0,"o":"m 1342 50 l 1035 364 b 1392 669 1115 367 1392 394 l 1392 710 b 1021 1018 1392 1007 1068 1018 l 88 1018 l 88 968 l 211 968 l 211 50 l 88 50 l 88 0 l 508 0 l 508 50 l 413 50 l 413 364 b 579 410 472 399 526 410 b 743 385 633 410 686 399 b 792 375 758 382 775 378 l 1160 0 l 1449 0 l 1449 50 z m 747 436 b 582 460 692 449 638 460 l 572 460 b 413 421 517 460 464 446 l 413 968 l 1015 968 b 1221 710 1068 968 1221 943 l 1221 669 b 1085 432 1221 486 1103 438 b 938 407 1032 414 983 407 b 754 435 872 407 813 421 z "},"t":{"ha":1346,"x_min":0,"x_max":0,"o":"m 847 0 l 847 50 l 743 50 l 743 968 l 1192 968 l 1207 825 l 1257 825 l 1257 1018 l 28 1018 l 28 825 l 78 825 l 90 968 l 542 968 l 542 50 l 428 50 l 428 0 z "},"u":{"ha":1725,"x_min":0,"x_max":0,"o":"m 1154 968 l 1274 968 l 1274 318 b 844 28 1264 233 1204 28 b 414 347 436 28 414 289 l 414 968 l 533 968 l 533 1018 l 90 1018 l 90 968 l 213 968 l 213 354 b 842 -22 213 -6 807 -22 b 1274 149 1004 -22 1150 31 l 1274 0 l 1581 0 l 1581 50 l 1476 50 l 1476 968 l 1610 968 l 1610 1018 l 1154 1018 z "},"v":{"ha":1488,"x_min":0,"x_max":0,"o":"m 1550 1018 l 1222 1018 l 1222 968 l 1342 968 l 869 78 l 379 968 l 467 968 l 467 1018 l 49 1018 l 49 968 l 151 968 l 697 0 l 908 0 l 1417 968 l 1550 968 z "},"w":{"ha":2365,"x_min":0,"x_max":0,"o":"m 811 78 l 363 968 l 450 968 l 450 1018 l 32 1018 l 32 968 l 135 968 l 639 0 l 850 0 l 1207 742 l 1593 0 l 1804 0 l 2271 968 l 2404 968 l 2404 1018 l 2076 1018 l 2076 968 l 2196 968 l 1765 78 l 1293 1018 l 1267 1018 z "},"x":{"ha":1513,"x_min":0,"x_max":0,"o":"m 1253 968 l 1435 968 l 1435 1018 l 988 1018 l 988 968 l 1201 968 b 1076 783 1193 908 1153 849 b 793 592 1000 718 900 656 l 426 968 l 525 968 l 525 1018 l 50 1018 l 50 968 l 197 968 l 650 503 b 419 336 567 450 486 396 b 250 50 314 242 258 147 l 50 50 l 50 0 l 497 0 l 497 50 l 300 50 b 453 299 310 133 360 215 b 686 467 519 358 601 414 l 1093 50 l 974 50 l 974 0 l 1435 0 l 1435 50 l 1322 50 l 829 554 b 1253 968 1040 683 1233 807 z "},"y":{"ha":1446,"x_min":0,"x_max":0,"o":"m 1375 968 l 1375 1018 l 1006 1018 l 1006 968 l 1156 968 l 736 433 l 315 968 l 415 968 l 415 1018 l -49 1018 l -49 968 l 82 968 l 554 325 l 554 50 l 433 50 l 433 0 l 878 0 l 878 50 l 758 50 l 758 386 l 1213 968 z "},"z":{"ha":1421,"x_min":0,"x_max":0,"o":"m 1235 194 l 1207 50 l 389 50 l 1251 968 l 1251 1018 l 118 1018 l 118 825 l 167 825 l 188 968 l 972 968 l 108 50 l 108 0 l 1283 0 l 1283 194 z "},"¨":{"ha":1157,"x_min":0,"x_max":0,"o":"m 347 1144 b 408 1083 347 1111 375 1083 b 475 1144 447 1083 475 1111 b 408 1211 475 1182 447 1211 b 347 1144 375 1211 347 1182 z m 668 1144 b 729 1083 668 1111 696 1083 b 796 1144 768 1083 796 1111 b 729 1211 796 1182 768 1211 b 668 1144 696 1211 668 1182 z "},"´":{"ha":1157,"x_min":0,"x_max":0,"o":"m 499 1154 l 536 1122 l 713 1303 l 661 1349 z "},"À":{"ha":1678,"x_min":0,"x_max":0,"o":"m 93 0 l 449 0 l 449 50 l 303 50 l 429 285 l 1132 285 l 1264 50 l 1149 50 l 1149 0 l 1617 0 l 1617 50 l 1492 50 l 946 1018 l 750 1018 l 242 50 l 93 50 z m 771 942 l 1100 346 l 457 346 z m 740 1304 l 689 1258 l 865 1078 l 903 1110 z "},"Ã":{"ha":1678,"x_min":0,"x_max":0,"o":"m 93 0 l 449 0 l 449 50 l 303 50 l 429 285 l 1132 285 l 1264 50 l 1149 50 l 1149 0 l 1617 0 l 1617 50 l 1492 50 l 946 1018 l 750 1018 l 242 50 l 93 50 z m 771 942 l 1100 346 l 457 346 z m 942 1140 b 1085 1186 985 1140 1033 1151 l 1049 1242 b 942 1207 1010 1217 975 1207 b 838 1228 906 1207 872 1218 b 728 1249 803 1239 767 1249 b 592 1193 685 1249 639 1236 l 636 1143 b 728 1182 668 1172 697 1182 b 818 1164 756 1182 785 1174 l 822 1163 b 942 1140 858 1151 897 1140 z "},"Ä":{"ha":1678,"x_min":0,"x_max":0,"o":"m 93 0 l 449 0 l 449 50 l 303 50 l 429 285 l 1132 285 l 1264 50 l 1149 50 l 1149 0 l 1617 0 l 1617 50 l 1492 50 l 946 1018 l 750 1018 l 242 50 l 93 50 z m 771 942 l 1100 346 l 457 346 z m 614 1144 b 675 1083 614 1111 642 1083 b 742 1144 714 1083 742 1111 b 675 1211 742 1182 714 1211 b 614 1144 642 1211 614 1182 z m 935 1144 b 996 1083 935 1111 963 1083 b 1063 1144 1035 1083 1063 1111 b 996 1211 1063 1182 1035 1211 b 935 1144 963 1211 935 1182 z "},"È":{"ha":1346,"x_min":0,"x_max":0,"o":"m 940 660 l 990 660 l 990 381 l 940 381 l 926 500 l 413 500 l 413 50 l 1167 50 l 1181 190 l 1229 190 l 1229 0 l 121 0 l 121 50 l 211 50 l 211 968 l 124 968 l 124 1018 l 1229 1018 l 1229 826 l 1181 826 l 1167 968 l 413 968 l 413 550 l 926 550 z m 574 1307 l 522 1261 l 699 1081 l 736 1113 z "},"Ë":{"ha":1346,"x_min":0,"x_max":0,"o":"m 940 660 l 990 660 l 990 381 l 940 381 l 926 500 l 413 500 l 413 50 l 1167 50 l 1181 190 l 1229 190 l 1229 0 l 121 0 l 121 50 l 211 50 l 211 968 l 124 968 l 124 1018 l 1229 1018 l 1229 826 l 1181 826 l 1167 968 l 413 968 l 413 550 l 926 550 z m 449 1144 b 510 1083 449 1111 476 1083 b 576 1144 549 1083 576 1111 b 510 1211 576 1182 549 1211 b 449 1144 476 1211 449 1182 z m 769 1144 b 831 1083 769 1111 797 1083 b 897 1144 869 1083 897 1111 b 831 1211 897 1182 869 1211 b 769 1144 797 1211 769 1182 z "},"Ï":{"ha":825,"x_min":0,"x_max":0,"o":"m 590 1018 l 590 968 l 486 968 l 486 50 l 590 50 l 590 0 l 189 0 l 189 50 l 285 50 l 285 968 l 188 968 l 188 1018 z m 158 1144 b 219 1083 158 1111 186 1083 b 286 1144 258 1083 286 1111 b 219 1211 286 1182 258 1211 b 158 1144 186 1211 158 1182 z m 479 1144 b 540 1083 479 1111 507 1083 b 607 1144 579 1083 607 1111 b 540 1211 607 1182 579 1211 b 479 1144 507 1211 479 1182 z "},"Ñ":{"ha":1628,"x_min":0,"x_max":0,"o":"m 126 968 l 222 968 l 222 50 l 83 50 l 83 0 l 422 0 l 422 50 l 283 50 l 283 936 l 1125 0 l 1367 0 l 1367 968 l 1506 968 l 1506 1018 l 1167 1018 l 1167 968 l 1306 968 l 1306 68 l 451 1018 l 126 1018 z m 915 1140 b 1058 1186 958 1140 1007 1151 l 1022 1242 b 915 1207 983 1217 949 1207 b 811 1228 879 1207 846 1218 b 701 1249 776 1239 740 1249 b 565 1193 658 1249 613 1236 l 610 1143 b 701 1182 642 1172 671 1182 b 792 1164 729 1182 758 1174 l 796 1163 b 915 1140 832 1151 871 1140 z "},"Ò":{"ha":1818,"x_min":0,"x_max":0,"o":"m 1017 1040 l 757 1040 b 82 508 385 1040 82 803 b 757 -22 82 215 385 -22 l 1017 -22 b 1688 508 1388 -21 1688 217 b 1017 1040 1688 801 1388 1039 z m 1014 28 l 757 28 b 285 508 496 28 285 243 b 757 990 285 775 496 990 l 1014 990 b 1486 508 1275 990 1486 775 b 1014 28 1486 243 1275 28 z m 853 1304 l 801 1258 l 978 1078 l 1015 1110 z "},"Õ":{"ha":1758,"x_min":0,"x_max":0,"o":"m 1017 1040 l 757 1040 b 82 508 385 1040 82 803 b 757 -22 82 215 385 -22 l 1017 -22 b 1688 508 1388 -21 1688 217 b 1017 1040 1688 801 1388 1039 z m 1014 28 l 757 28 b 285 508 496 28 285 243 b 757 990 285 775 496 990 l 1014 990 b 1486 508 1275 990 1486 775 b 1014 28 1486 243 1275 28 z m 982 1140 b 1125 1186 1025 1140 1074 1151 l 1089 1242 b 982 1207 1050 1217 1015 1207 b 878 1228 946 1207 913 1218 b 768 1249 843 1239 807 1249 b 632 1193 725 1249 679 1236 l 676 1143 b 768 1182 708 1172 738 1182 b 858 1164 796 1182 825 1174 l 863 1163 b 982 1140 899 1151 938 1140 z "},"Ö":{"ha":1818,"x_min":0,"x_max":0,"o":"m 1017 1040 l 757 1040 b 82 508 385 1040 82 803 b 757 -22 82 215 385 -22 l 1017 -22 b 1688 508 1388 -21 1688 217 b 1017 1040 1688 801 1388 1039 z m 1014 28 l 757 28 b 285 508 496 28 285 243 b 757 990 285 775 496 990 l 1014 990 b 1486 508 1275 990 1486 775 b 1014 28 1486 243 1275 28 z m 685 1144 b 746 1083 685 1111 713 1083 b 813 1144 785 1083 813 1111 b 746 1211 813 1182 785 1211 b 685 1144 713 1211 685 1182 z m 1006 1144 b 1067 1083 1006 1111 1033 1083 b 1133 1144 1106 1083 1133 1111 b 1067 1211 1133 1182 1106 1211 b 1006 1144 1033 1211 1006 1182 z "},"Ù":{"ha":1638,"x_min":0,"x_max":0,"o":"m 1119 1018 l 1575 1018 l 1575 968 l 1442 968 l 1442 376 b 815 0 1442 29 889 0 l 803 0 b 178 376 772 0 178 17 l 178 968 l 56 968 l 56 1018 l 499 1018 l 499 968 l 379 968 l 379 365 b 810 50 379 307 401 50 b 1240 368 1221 50 1240 318 l 1240 968 l 1119 968 z m 749 1304 l 697 1258 l 874 1078 l 911 1110 z "},"Ü":{"ha":1638,"x_min":0,"x_max":0,"o":"m 1119 1018 l 1575 1018 l 1575 968 l 1442 968 l 1442 376 b 815 0 1442 29 889 0 l 803 0 b 178 376 772 0 178 17 l 178 968 l 56 968 l 56 1018 l 499 1018 l 499 968 l 379 968 l 379 365 b 810 50 379 307 401 50 b 1240 368 1221 50 1240 318 l 1240 968 l 1119 968 z m 594 1144 b 656 1083 594 1111 622 1083 b 722 1144 694 1083 722 1111 b 656 1211 722 1182 694 1211 b 594 1144 622 1211 594 1182 z m 915 1144 b 976 1083 915 1111 943 1083 b 1043 1144 1015 1083 1043 1111 b 976 1211 1043 1182 1015 1211 b 915 1144 943 1211 915 1182 z "},"à":{"ha":1649,"x_min":0,"x_max":0,"o":"m 1574 50 l 1028 1018 l 832 1018 l 324 50 l 175 50 l 175 0 l 503 0 l 503 50 l 385 50 l 514 294 b 664 358 568 342 615 358 b 813 328 710 358 757 344 b 1010 290 871 310 938 290 b 1189 333 1072 290 1131 304 l 1346 50 l 1244 50 l 1244 0 l 1685 0 l 1685 50 z m 1010 340 b 826 375 947 340 886 357 b 664 408 771 392 717 408 l 657 408 b 561 385 624 407 592 400 l 853 942 l 1164 378 b 1010 340 1114 353 1063 340 z m 890 1304 l 839 1258 l 1015 1078 l 1053 1110 z "},"ä":{"ha":1649,"x_min":0,"x_max":0,"o":"m 1574 50 l 1028 1018 l 832 1018 l 324 50 l 175 50 l 175 0 l 503 0 l 503 50 l 385 50 l 514 294 b 664 358 568 342 615 358 b 813 328 710 358 757 344 b 1010 290 871 310 938 290 b 1189 333 1072 290 1131 304 l 1346 50 l 1244 50 l 1244 0 l 1685 0 l 1685 50 z m 1010 340 b 826 375 947 340 886 357 b 664 408 771 392 717 408 l 657 408 b 561 385 624 407 592 400 l 853 942 l 1164 378 b 1010 340 1114 353 1063 340 z m 690 1144 b 751 1083 690 1111 718 1083 b 818 1144 790 1083 818 1111 b 751 1211 818 1182 790 1211 b 690 1144 718 1211 690 1182 z m 1011 1144 b 1072 1083 1011 1111 1039 1083 b 1139 1144 1111 1083 1139 1111 b 1072 1211 1139 1182 1111 1211 b 1011 1144 1039 1211 1011 1182 z "},"ì":{"ha":825,"x_min":0,"x_max":0,"o":"m 590 1018 l 590 968 l 486 968 l 486 50 l 590 50 l 590 0 l 189 0 l 189 50 l 285 50 l 285 968 l 188 968 l 188 1018 z m 326 1304 l 275 1258 l 451 1078 l 489 1110 z "},"ï":{"ha":825,"x_min":0,"x_max":0,"o":"m 590 1018 l 590 968 l 486 968 l 486 50 l 590 50 l 590 0 l 189 0 l 189 50 l 285 50 l 285 968 l 188 968 l 188 1018 z m 160 1144 b 221 1083 160 1111 188 1083 b 288 1144 260 1083 288 1111 b 221 1211 288 1182 260 1211 b 160 1144 188 1211 160 1182 z m 481 1144 b 542 1083 481 1111 508 1083 b 608 1144 581 1083 608 1111 b 542 1211 608 1182 581 1211 b 481 1144 508 1211 481 1182 z "},"ñ":{"ha":1675,"x_min":0,"x_max":0,"o":"m 1119 0 l 1575 0 l 1575 50 l 1442 50 l 1442 669 b 815 1046 1442 1017 889 1046 l 803 1046 b 178 669 772 1046 178 1029 l 178 50 l 56 50 l 56 0 l 499 0 l 499 50 l 379 50 l 379 681 b 810 996 379 739 401 996 b 1240 678 1221 996 1240 728 l 1240 50 l 1119 50 z m 940 1075 b 1083 1121 983 1075 1032 1086 l 1047 1176 b 940 1142 1008 1151 974 1142 b 836 1163 904 1142 871 1153 b 726 1183 801 1174 765 1183 b 590 1128 683 1183 638 1171 l 635 1078 b 726 1117 667 1107 696 1117 b 817 1099 754 1117 783 1108 l 821 1097 b 940 1075 857 1086 896 1075 z "},"ò":{"ha":1824,"x_min":0,"x_max":0,"o":"m 1017 1040 l 757 1040 b 82 508 385 1040 82 803 b 757 -22 82 215 385 -22 l 1017 -22 b 1688 508 1388 -21 1688 217 b 1017 1040 1688 801 1388 1039 z m 1014 28 l 757 28 b 285 508 496 28 285 243 b 757 990 285 775 496 990 l 1014 990 b 1486 508 1275 990 1486 775 b 1014 28 1486 243 1275 28 z m 815 529 b 876 468 815 496 843 468 b 943 529 915 468 943 496 b 876 596 943 567 915 596 b 815 529 843 596 815 567 z m 814 1314 l 763 1268 l 939 1088 l 976 1119 z "},"õ":{"ha":1758,"x_min":0,"x_max":0,"o":"m 1017 1040 l 757 1040 b 82 508 385 1040 82 803 b 757 -22 82 215 385 -22 l 1017 -22 b 1688 508 1388 -21 1688 217 b 1017 1040 1688 801 1388 1039 z m 1014 28 l 757 28 b 285 508 496 28 285 243 b 757 990 285 775 496 990 l 1014 990 b 1486 508 1275 990 1486 775 b 1014 28 1486 243 1275 28 z m 815 529 b 876 468 815 496 843 468 b 943 529 915 468 943 496 b 876 596 943 567 915 596 b 815 529 843 596 815 567 z m 982 1118 b 1125 1164 1025 1118 1074 1129 l 1089 1219 b 982 1185 1050 1194 1015 1185 b 878 1206 946 1185 913 1196 b 768 1226 843 1217 807 1226 b 632 1171 725 1226 679 1214 l 676 1121 b 768 1160 708 1150 738 1160 b 858 1142 796 1160 825 1151 l 863 1140 b 982 1118 899 1129 938 1118 z "},"ö":{"ha":1824,"x_min":0,"x_max":0,"o":"m 1017 1040 l 757 1040 b 82 508 385 1040 82 803 b 757 -22 82 215 385 -22 l 1017 -22 b 1688 508 1388 -21 1688 217 b 1017 1040 1688 801 1388 1039 z m 1014 28 l 757 28 b 285 508 496 28 285 243 b 757 990 285 775 496 990 l 1014 990 b 1486 508 1275 990 1486 775 b 1014 28 1486 243 1275 28 z m 815 529 b 876 468 815 496 843 468 b 943 529 915 468 943 496 b 876 596 943 567 915 596 b 815 529 843 596 815 567 z m 688 1144 b 749 1083 688 1111 715 1083 b 815 1144 788 1083 815 1111 b 749 1211 815 1182 788 1211 b 688 1144 715 1211 688 1182 z m 1008 1144 b 1069 1083 1008 1111 1036 1083 b 1136 1144 1108 1083 1136 1111 b 1069 1211 1136 1182 1108 1211 b 1008 1144 1036 1211 1008 1182 z "},"ù":{"ha":1725,"x_min":0,"x_max":0,"o":"m 1154 1018 l 1610 1018 l 1610 968 l 1476 968 l 1476 50 l 1581 50 l 1581 0 l 1274 0 l 1274 149 b 842 -22 1150 31 1004 -22 b 213 354 807 -22 213 -6 l 213 968 l 90 968 l 90 1018 l 533 1018 l 533 968 l 414 968 l 414 347 b 844 28 414 289 436 28 b 1274 318 1204 28 1264 233 l 1274 968 l 1154 968 z m 807 1304 l 756 1258 l 932 1078 l 969 1110 z "},"ú":{"ha":1725,"x_min":0,"x_max":0,"o":"m 1154 968 l 1274 968 l 1274 318 b 844 28 1264 233 1204 28 b 414 347 436 28 414 289 l 414 968 l 533 968 l 533 1018 l 90 1018 l 90 968 l 213 968 l 213 354 b 842 -22 213 -6 807 -22 b 1274 149 1004 -22 1150 31 l 1274 0 l 1581 0 l 1581 50 l 1476 50 l 1476 968 l 1610 968 l 1610 1018 l 1154 1018 z m 756 1154 l 793 1122 l 969 1303 l 918 1349 z "},"ü":{"ha":1725,"x_min":0,"x_max":0,"o":"m 1154 1018 l 1610 1018 l 1610 968 l 1476 968 l 1476 50 l 1581 50 l 1581 0 l 1274 0 l 1274 149 b 842 -22 1150 31 1004 -22 b 213 354 807 -22 213 -6 l 213 968 l 90 968 l 90 1018 l 533 1018 l 533 968 l 414 968 l 414 347 b 844 28 414 289 436 28 b 1274 318 1204 28 1264 233 l 1274 968 l 1154 968 z m 610 1138 b 671 1076 610 1104 638 1076 b 738 1138 710 1076 738 1104 b 671 1204 738 1175 710 1204 b 610 1138 638 1204 610 1175 z m 931 1138 b 992 1076 931 1104 958 1076 b 1058 1138 1031 1076 1058 1104 b 992 1204 1058 1175 1031 1204 b 931 1138 958 1204 931 1175 z "},"ÿ":{"ha":1446,"x_min":0,"x_max":0,"o":"m 1213 968 l 758 386 l 758 50 l 878 50 l 878 0 l 433 0 l 433 50 l 554 50 l 554 325 l 82 968 l -49 968 l -49 1018 l 415 1018 l 415 968 l 315 968 l 736 433 l 1156 968 l 1006 968 l 1006 1018 l 1375 1018 l 1375 968 z m 464 1136 b 525 1075 464 1103 492 1075 b 592 1136 564 1075 592 1103 b 525 1203 592 1174 564 1203 b 464 1136 492 1203 464 1174 z m 785 1136 b 846 1075 785 1103 813 1075 b 913 1136 885 1075 913 1103 b 846 1203 913 1174 885 1203 b 785 1136 813 1203 785 1174 z "},"ć":{"ha":1465,"x_min":0,"x_max":0,"o":"m 1256 210 b 861 47 1156 110 1025 47 b 314 528 560 47 314 263 b 861 1010 314 794 560 1010 b 1256 847 1025 1010 1156 947 l 1303 847 l 1303 1061 l 1256 1061 l 1240 925 b 810 1061 1119 1017 990 1061 b 113 528 439 1061 113 822 b 810 -4 113 235 439 -4 b 1240 131 990 -4 1119 39 l 1256 -4 l 1303 -4 l 1303 210 z m 667 1164 l 704 1132 l 881 1313 l 829 1358 z "},"Ł":{"ha":1344,"x_min":0,"x_max":0,"o":"m 114 0 l 1225 0 l 1225 221 l 1175 221 l 1153 50 l 435 50 l 435 517 l 579 571 l 579 629 l 435 575 l 435 968 l 539 968 l 539 1018 l 114 1018 l 114 968 l 233 968 l 233 500 l 108 454 l 108 396 l 233 442 l 233 50 l 114 50 z "},"Ś":{"ha":1401,"x_min":0,"x_max":0,"o":"m 1239 315 b 919 610 1239 488 1053 610 l 408 610 b 278 764 340 610 278 697 l 278 772 b 485 971 278 811 289 971 l 1146 971 l 1156 839 l 1204 839 l 1204 1021 l 469 1021 b 107 701 361 1021 107 965 b 411 407 107 535 253 407 l 938 407 b 1068 253 1006 407 1068 319 l 1068 244 b 861 50 1068 207 1057 50 l 181 50 l 157 207 l 107 207 l 107 0 l 869 0 b 1239 315 972 0 1239 47 z m 593 1151 l 631 1119 l 807 1300 l 756 1346 z "},"ś":{"ha":1401,"x_min":0,"x_max":0,"o":"m 1183 968 l 1199 826 l 1249 826 l 1249 1018 l 483 1018 b 139 764 433 1018 139 1008 b 678 431 139 524 385 471 b 1144 222 994 386 1144 342 b 853 50 1144 57 894 50 l 214 50 l 199 193 l 139 193 l 139 0 l 906 0 b 1297 308 906 0 1297 3 b 824 619 1297 442 1179 575 b 296 842 597 649 296 686 b 463 968 296 935 389 968 z m 622 1154 l 660 1122 l 836 1303 l 785 1349 z "},"Ÿ":{"ha":1446,"x_min":0,"x_max":0,"o":"m 1213 968 l 758 386 l 758 50 l 878 50 l 878 0 l 433 0 l 433 50 l 554 50 l 554 325 l 82 968 l -49 968 l -49 1018 l 415 1018 l 415 968 l 315 968 l 736 433 l 1156 968 l 1006 968 l 1006 1018 l 1375 1018 l 1375 968 z m 454 1138 b 515 1076 454 1104 482 1076 b 582 1138 554 1076 582 1104 b 515 1204 582 1175 554 1204 b 454 1138 482 1204 454 1175 z m 775 1138 b 836 1076 775 1104 803 1076 b 903 1138 875 1076 903 1104 b 836 1204 903 1175 875 1204 b 775 1138 803 1204 775 1175 z "},"Ź":{"ha":1421,"x_min":0,"x_max":0,"o":"m 1235 194 l 1207 50 l 389 50 l 1251 968 l 1251 1018 l 118 1018 l 118 825 l 167 825 l 188 968 l 972 968 l 108 50 l 108 0 l 1283 0 l 1283 194 z m 603 1149 l 640 1117 l 817 1297 l 765 1343 z "},"ˇ":{"ha":1157,"x_min":0,"x_max":0,"o":"m 792 1297 l 757 1339 l 554 1207 l 350 1339 l 315 1297 b 554 1132 324 1292 549 1136 z "},"˜":{"ha":1157,"x_min":0,"x_max":0,"o":"m 696 854 b 839 900 739 854 788 865 l 803 956 b 696 921 764 931 729 921 b 592 942 660 921 626 932 b 482 963 557 953 521 963 b 346 907 439 963 393 950 l 390 857 b 482 896 422 886 451 896 b 572 878 510 896 539 888 l 576 876 b 696 854 613 865 651 854 z "},"•":{"ha":694,"x_min":0,"x_max":0,"o":"m 371 360 b 442 446 386 385 410 415 b 511 500 467 469 490 488 b 431 568 488 517 458 539 b 371 640 406 593 386 618 b 303 560 354 617 332 588 b 231 500 278 535 251 515 b 306 442 251 486 278 468 b 371 360 335 413 356 383 z "},"˚":{"ha":794,"x_min":0,"x_max":0,"o":"m 446 1097 b 561 1213 510 1097 561 1149 b 446 1328 561 1276 510 1328 b 331 1213 382 1328 331 1276 b 446 1097 331 1149 382 1097 z m 446 1278 b 511 1213 482 1278 511 1249 b 446 1147 511 1176 482 1147 b 381 1213 410 1147 381 1176 b 446 1278 381 1249 410 1278 z "},"å":{"ha":1649,"x_min":0,"x_max":0,"o":"m 1574 50 l 1028 1018 l 832 1018 l 324 50 l 175 50 l 175 0 l 503 0 l 503 50 l 385 50 l 514 294 b 664 358 568 342 615 358 b 813 328 710 358 757 344 b 1010 290 871 310 938 290 b 1189 333 1072 290 1131 304 l 1346 50 l 1244 50 l 1244 0 l 1685 0 l 1685 50 z m 1010 340 b 826 375 947 340 886 357 b 664 408 771 392 717 408 l 657 408 b 561 385 624 407 592 400 l 853 942 l 1164 378 b 1010 340 1114 353 1063 340 z m 950 1097 b 1065 1213 1014 1097 1065 1149 b 950 1328 1065 1276 1014 1328 b 835 1213 886 1328 835 1276 b 950 1097 835 1149 886 1097 z m 950 1278 b 1015 1213 986 1278 1015 1249 b 950 1147 1015 1176 986 1147 b 885 1213 914 1147 885 1176 b 950 1278 885 1249 914 1278 z "},"ã":{"ha":1649,"x_min":0,"x_max":0,"o":"m 1574 50 l 1028 1018 l 832 1018 l 324 50 l 175 50 l 175 0 l 503 0 l 503 50 l 385 50 l 514 294 b 664 358 568 342 615 358 b 813 328 710 358 757 344 b 1010 290 871 310 938 290 b 1189 333 1072 290 1131 304 l 1346 50 l 1244 50 l 1244 0 l 1685 0 l 1685 50 z m 1010 340 b 826 375 947 340 886 357 b 664 408 771 392 717 408 l 657 408 b 561 385 624 407 592 400 l 853 942 l 1164 378 b 1010 340 1114 353 1063 340 z m 1053 1079 b 1196 1125 1096 1079 1144 1090 l 1160 1181 b 1053 1146 1121 1156 1086 1146 b 949 1167 1017 1146 983 1157 b 839 1188 914 1178 878 1188 b 703 1132 796 1188 750 1175 l 747 1082 b 839 1121 779 1111 808 1121 b 929 1103 867 1121 896 1113 l 933 1101 b 1053 1079 969 1090 1008 1079 z "},"·":{"ha":336,"x_min":0,"x_max":0,"o":"m 107 422 b 168 361 107 389 135 361 b 235 422 207 361 235 389 b 168 489 235 460 207 489 b 107 422 135 489 107 460 z "},"ė":{"ha":1582,"x_min":0,"x_max":0,"o":"m 882 1003 b 1322 840 1046 1003 1222 940 l 1369 840 l 1369 1054 l 1322 1054 l 1307 918 b 831 1054 1186 1010 1011 1054 b 133 521 460 1054 133 815 b 831 -11 133 228 460 -11 b 1307 124 1011 -11 1186 32 l 1322 -11 l 1369 -11 l 1369 203 l 1322 203 b 882 40 1222 103 1046 40 b 339 464 603 40 371 225 b 586 551 419 524 501 551 l 604 551 b 1039 464 757 551 868 464 b 1204 490 1089 464 1142 472 l 1213 375 l 1261 375 l 1261 654 l 1211 654 l 1204 547 b 1038 514 1144 524 1089 514 b 603 601 885 514 761 594 l 588 601 b 335 522 500 601 417 576 b 882 1003 336 788 582 1003 z m 761 1186 b 822 1125 761 1153 789 1125 b 889 1186 861 1125 889 1153 b 822 1253 889 1224 861 1253 b 761 1186 789 1253 761 1224 z "},"_":{"ha":1042,"x_min":0,"x_max":0,"o":"m 936 -93 l 936 -43 l 108 -43 l 108 -93 z "},"Å":{"ha":1678,"x_min":0,"x_max":0,"o":"m 93 0 l 449 0 l 449 50 l 303 50 l 429 285 l 1132 285 l 1264 50 l 1149 50 l 1149 0 l 1617 0 l 1617 50 l 1492 50 l 946 1018 l 750 1018 l 242 50 l 93 50 z m 771 942 l 1100 346 l 457 346 z m 839 1097 b 954 1213 903 1097 954 1149 b 839 1328 954 1276 903 1328 b 724 1213 775 1328 724 1276 b 839 1097 724 1149 775 1097 z m 839 1278 b 904 1213 875 1278 904 1249 b 839 1147 904 1176 875 1147 b 774 1213 803 1147 774 1176 b 839 1278 774 1249 803 1278 z "},"¯":{"ha":1029,"x_min":0,"x_max":0,"o":"m 763 1121 l 763 1171 l 218 1171 l 218 1121 z "},"Ū":{"ha":1638,"x_min":0,"x_max":0,"o":"m 1119 968 l 1240 968 l 1240 368 b 810 50 1240 318 1221 50 b 379 365 401 50 379 307 l 379 968 l 499 968 l 499 1018 l 56 1018 l 56 968 l 178 968 l 178 376 b 803 0 178 17 772 0 l 815 0 b 1442 376 889 0 1442 29 l 1442 968 l 1575 968 l 1575 1018 l 1119 1018 z m 1111 1121 l 1111 1171 l 567 1171 l 567 1121 z "},"ū":{"ha":1725,"x_min":0,"x_max":0,"o":"m 1154 968 l 1274 968 l 1274 318 b 844 28 1264 233 1204 28 b 414 347 436 28 414 289 l 414 968 l 533 968 l 533 1018 l 90 1018 l 90 968 l 213 968 l 213 354 b 842 -22 213 -6 807 -22 b 1274 149 1004 -22 1150 31 l 1274 0 l 1581 0 l 1581 50 l 1476 50 l 1476 968 l 1610 968 l 1610 1018 l 1154 1018 z m 1135 1121 l 1135 1171 l 590 1171 l 590 1121 z "},"ō":{"ha":1824,"x_min":0,"x_max":0,"o":"m 1017 1040 l 757 1040 b 82 508 385 1040 82 803 b 757 -22 82 215 385 -22 l 1017 -22 b 1688 508 1388 -21 1688 217 b 1017 1040 1688 801 1388 1039 z m 1014 28 l 757 28 b 285 508 496 28 285 243 b 757 990 285 775 496 990 l 1014 990 b 1486 508 1275 990 1486 775 b 1014 28 1486 243 1275 28 z m 815 529 b 876 468 815 496 843 468 b 943 529 915 468 943 496 b 876 596 943 567 915 596 b 815 529 843 596 815 567 z m 1153 1121 l 1153 1171 l 608 1171 l 608 1121 z "},"Ō":{"ha":1818,"x_min":0,"x_max":0,"o":"m 1017 1040 l 757 1040 b 82 508 385 1040 82 803 b 757 -22 82 215 385 -22 l 1017 -22 b 1688 508 1388 -21 1688 217 b 1017 1040 1688 801 1388 1039 z m 1014 28 l 757 28 b 285 508 496 28 285 243 b 757 990 285 775 496 990 l 1014 990 b 1486 508 1275 990 1486 775 b 1014 28 1486 243 1275 28 z m 1139 1121 l 1139 1171 l 594 1171 l 594 1121 z "},"ż":{"ha":1421,"x_min":0,"x_max":0,"o":"m 1235 194 l 1207 50 l 389 50 l 1251 968 l 1251 1018 l 118 1018 l 118 825 l 167 825 l 188 968 l 972 968 l 108 50 l 108 0 l 1283 0 l 1283 194 z "},"Ż":{"ha":1421,"x_min":0,"x_max":0,"o":"m 1235 194 l 1207 50 l 389 50 l 1251 968 l 1251 1018 l 118 1018 l 118 825 l 167 825 l 188 968 l 972 968 l 108 50 l 108 0 l 1283 0 l 1283 194 z m 597 1157 b 658 1096 597 1124 625 1096 b 725 1157 697 1096 725 1124 b 658 1224 725 1194 697 1224 b 597 1157 625 1224 597 1194 z "},"ā":{"ha":1649,"x_min":0,"x_max":0,"o":"m 1574 50 l 1028 1018 l 832 1018 l 324 50 l 175 50 l 175 0 l 503 0 l 503 50 l 385 50 l 514 294 b 664 358 568 342 615 358 b 813 328 710 358 757 344 b 1010 290 871 310 938 290 b 1189 333 1072 290 1131 304 l 1346 50 l 1244 50 l 1244 0 l 1685 0 l 1685 50 z m 1010 340 b 826 375 947 340 886 357 b 664 408 771 392 717 408 l 657 408 b 561 385 624 407 592 400 l 853 942 l 1164 378 b 1010 340 1114 353 1063 340 z m 1228 1121 l 1228 1171 l 683 1171 l 683 1121 z "},"Ā":{"ha":1678,"x_min":0,"x_max":0,"o":"m 93 0 l 449 0 l 449 50 l 303 50 l 429 285 l 1132 285 l 1264 50 l 1149 50 l 1149 0 l 1617 0 l 1617 50 l 1492 50 l 946 1018 l 750 1018 l 242 50 l 93 50 z m 771 942 l 1100 346 l 457 346 z m 1111 1121 l 1111 1171 l 567 1171 l 567 1121 z "},"Ē":{"ha":1346,"x_min":0,"x_max":0,"o":"m 926 550 l 413 550 l 413 968 l 1167 968 l 1181 826 l 1229 826 l 1229 1018 l 124 1018 l 124 968 l 211 968 l 211 50 l 121 50 l 121 0 l 1229 0 l 1229 190 l 1181 190 l 1167 50 l 413 50 l 413 500 l 926 500 l 940 381 l 990 381 l 990 660 l 940 660 z m 944 1121 l 944 1171 l 400 1171 l 400 1121 z "},"ī":{"ha":825,"x_min":0,"x_max":0,"o":"m 188 1018 l 188 968 l 285 968 l 285 50 l 189 50 l 189 0 l 590 0 l 590 50 l 486 50 l 486 968 l 590 968 l 590 1018 z m 656 1121 l 656 1171 l 111 1171 l 111 1121 z "},"÷":{"ha":360,"x_min":0,"x_max":0,"o":"m 115 228 b 176 167 115 194 143 167 b 243 228 215 167 243 194 b 176 294 243 265 215 294 b 115 228 143 294 115 265 z m 115 686 b 176 625 115 653 143 625 b 243 686 215 625 243 653 b 176 753 243 724 215 753 b 115 686 143 753 115 724 z "},"G":{"ha":1531,"x_min":0,"x_max":0,"o":"m 1467 503 l 1043 503 l 1043 453 l 1158 453 l 1158 82 b 872 21 1071 43 969 21 b 283 501 571 21 283 236 b 872 983 283 768 571 983 b 1313 821 1036 983 1213 921 l 1360 821 l 1360 1035 l 1313 1035 l 1297 899 b 829 1035 1178 989 1006 1033 l 821 1035 b 82 501 450 1035 82 796 b 821 -31 82 208 450 -31 b 1360 122 1035 -31 1161 4 l 1360 453 l 1467 453 z "},"s":{"ha":1401,"x_min":0,"x_max":0,"o":"m 1183 968 l 1199 826 l 1249 826 l 1249 1018 l 483 1018 b 139 764 433 1018 139 1008 b 678 431 139 524 385 471 b 1144 222 994 386 1144 342 b 853 50 1144 57 894 50 l 214 50 l 199 193 l 139 193 l 139 0 l 906 0 b 1297 308 906 0 1297 3 b 824 619 1297 442 1179 575 b 296 842 597 649 296 686 b 463 968 296 935 389 968 z "},";":{"ha":347,"x_min":0,"x_max":0,"o":"m 221 229 b 154 293 221 265 188 293 b 94 228 121 293 94 264 b 154 165 94 193 121 165 l 164 165 b 128 92 158 136 144 106 l 149 74 b 221 221 197 114 221 182 z m 93 692 b 154 631 93 658 121 631 b 221 692 193 631 221 658 b 154 758 221 729 193 758 b 93 692 121 758 93 729 z "},"!":{"ha":493,"x_min":0,"x_max":0,"o":"m 144 61 b 206 0 144 28 172 0 b 272 61 244 0 272 28 b 206 128 272 99 244 128 b 144 61 172 128 144 99 z m 104 975 l 160 261 l 257 261 l 313 975 z "},"İ":{"ha":825,"x_min":0,"x_max":0,"o":"m 590 1018 l 590 968 l 486 968 l 486 50 l 590 50 l 590 0 l 189 0 l 189 50 l 285 50 l 285 968 l 188 968 l 188 1018 z m 319 1172 b 381 1111 319 1139 347 1111 b 447 1172 419 1111 447 1139 b 381 1239 447 1210 419 1239 b 319 1172 347 1239 319 1210 z "},"”":{"ha":493,"x_min":0,"x_max":0,"o":"m 207 1126 b 140 1190 207 1163 174 1190 b 81 1125 107 1190 81 1161 b 140 1063 81 1090 107 1063 l 150 1063 b 114 989 144 1033 131 1003 l 135 971 b 207 1118 183 1011 207 1079 z m 388 1126 b 321 1190 388 1163 354 1190 b 261 1125 288 1190 261 1161 b 321 1063 261 1090 288 1063 l 331 1063 b 294 989 325 1033 311 1003 l 315 971 b 388 1118 364 1011 388 1079 z "},"’":{"ha":318,"x_min":0,"x_max":0,"o":"m 235 1147 b 168 1211 235 1183 201 1211 b 108 1146 135 1211 108 1182 b 168 1083 108 1111 135 1083 l 178 1083 b 142 1010 172 1054 158 1024 l 163 992 b 235 1139 211 1032 235 1100 z "},"Ì":{"ha":825,"x_min":0,"x_max":0,"o":"m 590 1018 l 590 968 l 486 968 l 486 50 l 590 50 l 590 0 l 189 0 l 189 50 l 285 50 l 285 968 l 188 968 l 188 1018 z m 313 1311 l 261 1265 l 438 1085 l 475 1117 z "},"ˆ":{"ha":900,"x_min":0,"x_max":0,"o":"m 471 1293 b 232 1128 465 1289 240 1133 l 267 1086 l 471 1218 l 674 1086 l 708 1128 z "},"g":{"ha":1531,"x_min":0,"x_max":0,"o":"m 1467 503 l 1043 503 l 1043 453 l 1158 453 l 1158 82 b 872 21 1071 43 969 21 b 283 501 571 21 283 236 b 872 983 283 768 571 983 b 1313 821 1036 983 1213 921 l 1360 821 l 1360 1035 l 1313 1035 l 1297 899 b 829 1035 1178 989 1006 1033 l 821 1035 b 82 501 450 1035 82 796 b 821 -31 82 208 450 -31 b 1360 122 1035 -31 1161 4 l 1360 453 l 1467 453 z "},"h":{"ha":1596,"x_min":0,"x_max":0,"o":"m 1508 968 l 1508 1018 l 1085 1018 l 1085 968 l 1189 968 l 1189 542 b 999 504 1119 515 1057 503 b 779 542 917 506 857 521 b 582 576 713 560 650 575 b 413 543 518 576 465 565 l 413 968 l 517 968 l 517 1018 l 100 1018 l 100 968 l 211 968 l 211 50 l 101 50 l 101 0 l 517 0 l 517 50 l 413 50 l 413 488 b 574 528 469 517 522 528 b 767 493 638 528 700 511 b 999 454 842 474 919 454 b 1189 489 1063 454 1125 465 l 1189 50 l 1085 50 l 1085 0 l 1508 0 l 1508 50 l 1390 50 l 1390 968 z "},"Û":{"ha":1638,"x_min":0,"x_max":0,"o":"m 1119 1018 l 1575 1018 l 1575 968 l 1442 968 l 1442 376 b 815 0 1442 29 889 0 l 803 0 b 178 376 772 0 178 17 l 178 968 l 56 968 l 56 1018 l 499 1018 l 499 968 l 379 968 l 379 365 b 810 50 379 307 401 50 b 1240 368 1221 50 1240 318 l 1240 968 l 1119 968 z m 815 1293 b 576 1128 810 1289 585 1133 l 611 1086 l 815 1218 l 1018 1086 l 1053 1128 z "},"Â":{"ha":1678,"x_min":0,"x_max":0,"o":"m 93 0 l 449 0 l 449 50 l 303 50 l 429 285 l 1132 285 l 1264 50 l 1149 50 l 1149 0 l 1617 0 l 1617 50 l 1492 50 l 946 1018 l 750 1018 l 242 50 l 93 50 z m 771 942 l 1100 346 l 457 346 z m 839 1293 b 600 1128 833 1289 608 1133 l 635 1086 l 839 1218 l 1042 1086 l 1076 1128 z "},"Î":{"ha":825,"x_min":0,"x_max":0,"o":"m 590 1018 l 590 968 l 486 968 l 486 50 l 590 50 l 590 0 l 189 0 l 189 50 l 285 50 l 285 968 l 188 968 l 188 1018 z m 386 1293 b 147 1128 381 1289 156 1133 l 182 1086 l 386 1218 l 589 1086 l 624 1128 z "},"Ģ":{"ha":1531,"x_min":0,"x_max":0,"o":"m 1467 503 l 1043 503 l 1043 453 l 1158 453 l 1158 82 b 872 21 1071 43 969 21 b 283 501 571 21 283 236 b 872 983 283 768 571 983 b 1313 821 1036 983 1213 921 l 1360 821 l 1360 1035 l 1313 1035 l 1297 899 b 829 1035 1178 989 1006 1033 l 821 1035 b 82 501 450 1035 82 796 b 821 -31 82 208 450 -31 b 1360 122 1035 -31 1161 4 l 1360 453 l 1467 453 z m 910 -171 b 843 -107 910 -135 876 -107 b 783 -172 810 -107 783 -136 b 843 -235 783 -207 810 -235 l 853 -235 b 817 -308 847 -264 833 -294 l 838 -326 b 910 -179 886 -286 910 -218 z "},"Ņ":{"ha":1628,"x_min":0,"x_max":0,"o":"m 126 968 l 222 968 l 222 50 l 83 50 l 83 0 l 422 0 l 422 50 l 283 50 l 283 936 l 1125 0 l 1367 0 l 1367 968 l 1506 968 l 1506 1018 l 1167 1018 l 1167 968 l 1306 968 l 1306 68 l 451 1018 l 126 1018 z m 842 -61 b 775 3 842 -25 808 3 b 715 -62 742 3 715 -26 b 775 -125 715 -97 742 -125 l 785 -125 b 749 -199 779 -154 765 -185 l 769 -217 b 842 -69 818 -176 842 -108 z "},"ķ":{"ha":1443,"x_min":0,"x_max":0,"o":"m 1200 50 l 721 626 b 868 715 771 650 821 678 b 1053 968 944 775 1015 872 l 1204 968 l 1204 1018 l 835 1018 l 835 968 l 999 968 b 838 754 963 888 900 804 b 638 643 775 704 703 672 l 625 638 b 414 521 554 607 479 572 b 307 404 371 488 336 449 l 307 968 l 411 968 l 411 1018 l 8 1018 l 8 968 l 106 968 l 106 50 l 10 50 l 10 0 l 411 0 l 411 50 l 307 50 l 307 292 b 444 481 338 371 383 432 b 519 531 468 500 493 515 l 906 50 l 792 50 l 792 0 l 1306 0 l 1306 50 z m 643 -122 b 576 -58 643 -86 610 -58 b 517 -124 543 -58 517 -87 b 576 -186 517 -158 543 -186 l 586 -186 b 550 -260 581 -215 567 -246 l 571 -278 b 643 -131 619 -237 643 -169 z "},"Ô":{"ha":1818,"x_min":0,"x_max":0,"o":"m 1017 1040 l 757 1040 b 82 508 385 1040 82 803 b 757 -22 82 215 385 -22 l 1017 -22 b 1688 508 1388 -21 1688 217 b 1017 1040 1688 801 1388 1039 z m 1014 28 l 757 28 b 285 508 496 28 285 243 b 757 990 285 775 496 990 l 1014 990 b 1486 508 1275 990 1486 775 b 1014 28 1486 243 1275 28 z m 910 1293 b 671 1128 904 1289 679 1133 l 706 1086 l 910 1218 l 1113 1086 l 1147 1128 z "},"Ũ":{"ha":1638,"x_min":0,"x_max":0,"o":"m 1119 968 l 1240 968 l 1240 368 b 810 50 1240 318 1221 50 b 379 365 401 50 379 307 l 379 968 l 499 968 l 499 1018 l 56 1018 l 56 968 l 178 968 l 178 376 b 803 0 178 17 772 0 l 815 0 b 1442 376 889 0 1442 29 l 1442 968 l 1575 968 l 1575 1018 l 1119 1018 z m 910 1083 b 1053 1129 953 1083 1001 1094 l 1017 1185 b 910 1150 978 1160 943 1150 b 806 1171 874 1150 840 1161 b 696 1192 771 1182 735 1192 b 560 1136 653 1192 607 1179 l 604 1086 b 696 1125 636 1115 665 1125 b 786 1107 724 1125 753 1117 l 790 1106 b 910 1083 826 1094 865 1083 z "},"Ê":{"ha":1432,"x_min":0,"x_max":0,"o":"m 940 660 l 990 660 l 990 381 l 940 381 l 926 500 l 413 500 l 413 50 l 1167 50 l 1181 190 l 1229 190 l 1229 0 l 121 0 l 121 50 l 211 50 l 211 968 l 124 968 l 124 1018 l 1229 1018 l 1229 826 l 1181 826 l 1167 968 l 413 968 l 413 550 l 926 550 z m 717 1293 b 478 1128 711 1289 486 1133 l 513 1086 l 717 1218 l 919 1086 l 954 1128 z "},"â":{"ha":1649,"x_min":0,"x_max":0,"o":"m 1574 50 l 1028 1018 l 832 1018 l 324 50 l 175 50 l 175 0 l 503 0 l 503 50 l 385 50 l 514 294 b 664 358 568 342 615 358 b 813 328 710 358 757 344 b 1010 290 871 310 938 290 b 1189 333 1072 290 1131 304 l 1346 50 l 1244 50 l 1244 0 l 1685 0 l 1685 50 z m 1010 340 b 826 375 947 340 886 357 b 664 408 771 392 717 408 l 657 408 b 561 385 624 407 592 400 l 853 942 l 1164 378 b 1010 340 1114 353 1063 340 z m 950 1293 b 711 1128 944 1289 719 1133 l 746 1086 l 950 1218 l 1153 1086 l 1188 1128 z "},"Ů":{"ha":1638,"x_min":0,"x_max":0,"o":"m 1119 968 l 1240 968 l 1240 368 b 810 50 1240 318 1221 50 b 379 365 401 50 379 307 l 379 968 l 499 968 l 499 1018 l 56 1018 l 56 968 l 178 968 l 178 376 b 803 0 178 17 772 0 l 815 0 b 1442 376 889 0 1442 29 l 1442 968 l 1575 968 l 1575 1018 l 1119 1018 z m 817 1089 b 932 1204 881 1089 932 1140 b 817 1319 932 1268 881 1319 b 701 1204 753 1319 701 1268 b 817 1089 701 1140 753 1089 z m 817 1269 b 882 1204 853 1269 882 1240 b 817 1139 882 1168 853 1139 b 751 1204 781 1139 751 1168 b 817 1269 751 1240 781 1269 z "},"˘":{"ha":783,"x_min":0,"x_max":0,"o":"m 469 1083 b 603 1217 543 1083 603 1143 l 553 1217 b 469 1133 553 1171 515 1133 l 279 1133 b 196 1217 233 1133 196 1171 l 146 1217 b 279 1083 146 1143 206 1083 l 469 1083 z "},"ă":{"ha":1649,"x_min":0,"x_max":0,"o":"m 1457 50 l 911 1018 l 715 1018 l 207 50 l 58 50 l 58 0 l 386 0 l 386 50 l 268 50 l 397 294 b 547 358 451 342 499 358 b 696 328 593 358 640 344 b 893 290 754 310 821 290 b 1072 333 956 290 1014 304 l 1229 50 l 1128 50 l 1128 0 l 1568 0 l 1568 50 z m 893 340 b 710 375 831 340 769 357 b 547 408 654 392 600 408 l 540 408 b 444 385 507 407 475 400 l 736 942 l 1047 378 b 893 340 997 353 946 340 z m 919 1083 b 1053 1217 993 1083 1053 1143 l 1003 1217 b 919 1133 1003 1171 965 1133 l 729 1133 b 646 1217 683 1133 646 1171 l 596 1217 b 729 1083 596 1143 656 1083 z "},"û":{"ha":1725,"x_min":0,"x_max":0,"o":"m 1154 1018 l 1610 1018 l 1610 968 l 1476 968 l 1476 50 l 1581 50 l 1581 0 l 1274 0 l 1274 149 b 842 -22 1150 31 1004 -22 b 213 354 807 -22 213 -6 l 213 968 l 90 968 l 90 1018 l 533 1018 l 533 968 l 414 968 l 414 347 b 844 28 414 289 436 28 b 1274 318 1204 28 1264 233 l 1274 968 l 1154 968 z m 863 1293 b 624 1128 857 1289 632 1133 l 658 1086 l 863 1218 l 1065 1086 l 1100 1128 z "},"ũ":{"ha":1725,"x_min":0,"x_max":0,"o":"m 1154 968 l 1274 968 l 1274 318 b 844 28 1264 233 1204 28 b 414 347 436 28 414 289 l 414 968 l 533 968 l 533 1018 l 90 1018 l 90 968 l 213 968 l 213 354 b 842 -22 213 -6 807 -22 b 1274 149 1004 -22 1150 31 l 1274 0 l 1581 0 l 1581 50 l 1476 50 l 1476 968 l 1610 968 l 1610 1018 l 1154 1018 z m 965 1076 b 1108 1122 1008 1076 1057 1088 l 1072 1178 b 965 1143 1033 1153 999 1143 b 861 1164 929 1143 896 1154 b 751 1185 826 1175 790 1185 b 615 1129 708 1185 663 1172 l 660 1079 b 751 1118 692 1108 721 1118 b 842 1100 779 1118 808 1110 l 846 1099 b 965 1076 882 1088 921 1076 z "},"Š":{"ha":1401,"x_min":0,"x_max":0,"o":"m 1239 315 b 919 610 1239 488 1053 610 l 408 610 b 278 764 340 610 278 697 l 278 772 b 485 971 278 811 289 971 l 1146 971 l 1156 839 l 1204 839 l 1204 1021 l 469 1021 b 107 701 361 1021 107 965 b 411 407 107 535 253 407 l 938 407 b 1068 253 1006 407 1068 319 l 1068 244 b 861 50 1068 207 1057 50 l 181 50 l 157 207 l 107 207 l 107 0 l 869 0 b 1239 315 972 0 1239 47 z m 907 1263 l 872 1304 l 669 1172 l 465 1304 l 431 1263 b 669 1097 439 1257 664 1101 z "},"Ŝ":{"ha":1401,"x_min":0,"x_max":0,"o":"m 1239 315 b 919 610 1239 488 1053 610 l 408 610 b 278 764 340 610 278 697 l 278 772 b 485 971 278 811 289 971 l 1146 971 l 1156 839 l 1204 839 l 1204 1021 l 469 1021 b 107 701 361 1021 107 965 b 411 407 107 535 253 407 l 938 407 b 1068 253 1006 407 1068 319 l 1068 244 b 861 50 1068 207 1057 50 l 181 50 l 157 207 l 107 207 l 107 0 l 869 0 b 1239 315 972 0 1239 47 z m 701 1293 b 463 1128 696 1289 471 1133 l 497 1086 l 701 1218 l 904 1086 l 939 1128 z "},"Ŭ":{"ha":1638,"x_min":0,"x_max":0,"o":"m 1119 968 l 1240 968 l 1240 368 b 810 50 1240 318 1221 50 b 379 365 401 50 379 307 l 379 968 l 499 968 l 499 1018 l 56 1018 l 56 968 l 178 968 l 178 376 b 803 0 178 17 772 0 l 815 0 b 1442 376 889 0 1442 29 l 1442 968 l 1575 968 l 1575 1018 l 1119 1018 z m 914 1083 b 1047 1217 988 1083 1047 1143 l 997 1217 b 914 1133 997 1171 960 1133 l 724 1133 b 640 1217 678 1133 640 1171 l 590 1217 b 724 1083 590 1143 650 1083 z "},"Ĝ":{"ha":1531,"x_min":0,"x_max":0,"o":"m 1467 503 l 1043 503 l 1043 453 l 1158 453 l 1158 82 b 872 21 1071 43 969 21 b 283 501 571 21 283 236 b 872 983 283 768 571 983 b 1313 821 1036 983 1213 921 l 1360 821 l 1360 1035 l 1313 1035 l 1297 899 b 829 1035 1178 989 1006 1033 l 821 1035 b 82 501 450 1035 82 796 b 821 -31 82 208 450 -31 b 1360 122 1035 -31 1161 4 l 1360 453 l 1467 453 z m 807 1293 b 568 1128 801 1289 576 1133 l 603 1086 l 807 1218 l 1010 1086 l 1044 1128 z "},"Ĉ":{"ha":1465,"x_min":0,"x_max":0,"o":"m 1256 210 b 861 47 1156 110 1025 47 b 314 528 560 47 314 263 b 861 1010 314 794 560 1010 b 1256 847 1025 1010 1156 947 l 1303 847 l 1303 1061 l 1256 1061 l 1240 925 b 810 1061 1119 1017 990 1061 b 113 528 439 1061 113 822 b 810 -4 113 235 439 -4 b 1240 131 990 -4 1119 39 l 1256 -4 l 1303 -4 l 1303 210 z m 792 1311 b 553 1146 786 1307 561 1151 l 588 1104 l 792 1236 l 994 1104 l 1029 1146 z "},"Ğ":{"ha":1531,"x_min":0,"x_max":0,"o":"m 1467 503 l 1043 503 l 1043 453 l 1158 453 l 1158 82 b 872 21 1071 43 969 21 b 283 501 571 21 283 236 b 872 983 283 768 571 983 b 1313 821 1036 983 1213 921 l 1360 821 l 1360 1035 l 1313 1035 l 1297 899 b 829 1035 1178 989 1006 1033 l 821 1035 b 82 501 450 1035 82 796 b 821 -31 82 208 450 -31 b 1360 122 1035 -31 1161 4 l 1360 453 l 1467 453 z m 860 1083 b 993 1217 933 1083 993 1143 l 943 1217 b 860 1133 943 1171 906 1133 l 669 1133 b 586 1217 624 1133 586 1171 l 536 1217 b 669 1083 536 1143 596 1083 z "},"Ĵ":{"ha":954,"x_min":0,"x_max":0,"o":"m 215 254 b 136 175 215 211 181 175 l 128 175 b 365 40 151 113 211 40 b 564 315 514 40 564 211 l 564 968 l 425 968 l 425 1018 l 897 1018 l 897 968 l 765 968 l 765 315 b 375 -10 765 279 714 -10 b 57 242 78 -10 57 185 l 57 254 b 136 333 57 297 93 333 b 215 254 181 333 215 297 z m 658 1293 b 419 1128 653 1289 428 1133 l 454 1086 l 658 1218 l 861 1086 l 896 1128 z "},"Ĥ":{"ha":1596,"x_min":0,"x_max":0,"o":"m 78 0 l 78 50 l 188 50 l 188 968 l 76 968 l 76 1018 l 493 1018 l 493 968 l 389 968 l 389 542 l 1165 542 l 1165 968 l 1068 968 l 1068 1018 l 1485 1018 l 1485 968 l 1367 968 l 1367 50 l 1485 50 l 1485 0 l 1069 0 l 1069 50 l 1165 50 l 1165 492 l 389 492 l 389 50 l 493 50 l 493 0 z m 799 1293 b 560 1128 793 1289 568 1133 l 594 1086 l 799 1218 l 1001 1086 l 1036 1128 z "},"ĉ":{"ha":1465,"x_min":0,"x_max":0,"o":"m 1256 210 b 861 47 1156 110 1025 47 b 314 528 560 47 314 263 b 861 1010 314 794 560 1010 b 1256 847 1025 1010 1156 947 l 1303 847 l 1303 1061 l 1256 1061 l 1240 925 b 810 1061 1119 1017 990 1061 b 113 528 439 1061 113 822 b 810 -4 113 235 439 -4 b 1240 131 990 -4 1119 39 l 1256 -4 l 1303 -4 l 1303 210 z m 761 1293 b 522 1128 756 1289 531 1133 l 557 1086 l 761 1218 l 964 1086 l 999 1128 z "},"ŝ":{"ha":1401,"x_min":0,"x_max":0,"o":"m 463 968 b 296 842 389 968 296 935 b 824 619 296 686 597 649 b 1297 308 1179 575 1297 442 b 906 0 1297 3 906 0 l 139 0 l 139 193 l 199 193 l 214 50 l 853 50 b 1144 222 894 50 1144 57 b 678 431 1144 342 994 386 b 139 764 385 471 139 524 b 483 1018 139 1008 433 1018 l 1249 1018 l 1249 826 l 1199 826 l 1183 968 z m 701 1293 b 463 1128 696 1289 471 1133 l 497 1086 l 701 1218 l 904 1086 l 939 1128 z "},"ŭ":{"ha":1725,"x_min":0,"x_max":0,"o":"m 1154 968 l 1274 968 l 1274 318 b 844 28 1264 233 1204 28 b 414 347 436 28 414 289 l 414 968 l 533 968 l 533 1018 l 90 1018 l 90 968 l 213 968 l 213 354 b 842 -22 213 -6 807 -22 b 1274 149 1004 -22 1150 31 l 1274 0 l 1581 0 l 1581 50 l 1476 50 l 1476 968 l 1610 968 l 1610 1018 l 1154 1018 z m 957 1083 b 1090 1217 1031 1083 1090 1143 l 1040 1217 b 957 1133 1040 1171 1003 1133 l 767 1133 b 683 1217 721 1133 683 1171 l 633 1217 b 767 1083 633 1143 693 1083 z "},"ĝ":{"ha":1531,"x_min":0,"x_max":0,"o":"m 1467 503 l 1043 503 l 1043 453 l 1158 453 l 1158 82 b 872 21 1071 43 969 21 b 283 501 571 21 283 236 b 872 983 283 768 571 983 b 1313 821 1036 983 1213 921 l 1360 821 l 1360 1035 l 1313 1035 l 1297 899 b 829 1035 1178 989 1006 1033 l 821 1035 b 82 501 450 1035 82 796 b 821 -31 82 208 450 -31 b 1360 122 1035 -31 1161 4 l 1360 453 l 1467 453 z m 807 1285 b 568 1119 801 1281 576 1125 l 603 1078 l 807 1210 l 1010 1078 l 1044 1119 z "},"ğ":{"ha":1531,"x_min":0,"x_max":0,"o":"m 1467 503 l 1043 503 l 1043 453 l 1158 453 l 1158 82 b 872 21 1071 43 969 21 b 283 501 571 21 283 236 b 872 983 283 768 571 983 b 1313 821 1036 983 1213 921 l 1360 821 l 1360 1035 l 1313 1035 l 1297 899 b 829 1035 1178 989 1006 1033 l 821 1035 b 82 501 450 1035 82 796 b 821 -31 82 208 450 -31 b 1360 122 1035 -31 1161 4 l 1360 453 l 1467 453 z m 901 1083 b 1035 1217 975 1083 1035 1143 l 985 1217 b 901 1133 985 1171 947 1133 l 711 1133 b 628 1217 665 1133 628 1171 l 578 1217 b 711 1083 578 1143 638 1083 z "},"j":{"ha":954,"x_min":0,"x_max":0,"o":"m 215 254 b 136 333 215 297 181 333 b 57 254 93 333 57 297 l 57 242 b 375 -10 57 185 78 -10 b 765 315 714 -10 765 279 l 765 968 l 897 968 l 897 1018 l 425 1018 l 425 968 l 564 968 l 564 315 b 365 40 564 211 514 40 b 128 175 211 40 151 113 l 136 175 b 215 254 181 175 215 211 z "},"î":{"ha":825,"x_min":0,"x_max":0,"o":"m 590 1018 l 590 968 l 486 968 l 486 50 l 590 50 l 590 0 l 189 0 l 189 50 l 285 50 l 285 968 l 188 968 l 188 1018 z m 385 1293 b 146 1128 379 1289 154 1133 l 181 1086 l 385 1218 l 588 1086 l 622 1128 z "},"ô":{"ha":1824,"x_min":0,"x_max":0,"o":"m 1017 1040 l 757 1040 b 82 508 385 1040 82 803 b 757 -22 82 215 385 -22 l 1017 -22 b 1688 508 1388 -21 1688 217 b 1017 1040 1688 801 1388 1039 z m 1014 28 l 757 28 b 285 508 496 28 285 243 b 757 990 285 775 496 990 l 1014 990 b 1486 508 1275 990 1486 775 b 1014 28 1486 243 1275 28 z m 815 529 b 876 468 815 496 843 468 b 943 529 915 468 943 496 b 876 596 943 567 915 596 b 815 529 843 596 815 567 z m 881 1293 b 642 1128 875 1289 650 1133 l 676 1086 l 881 1218 l 1083 1086 l 1118 1128 z "},"|":{"ha":297,"x_min":0,"x_max":0,"o":"m 171 1147 l 107 1147 l 107 -78 l 171 -78 z "},"ĥ":{"ha":1596,"x_min":0,"x_max":0,"o":"m 1508 968 l 1508 1018 l 1085 1018 l 1085 968 l 1189 968 l 1189 542 b 999 504 1119 515 1057 503 b 779 542 917 506 857 521 b 582 576 713 560 650 575 b 413 543 518 576 465 565 l 413 968 l 517 968 l 517 1018 l 100 1018 l 100 968 l 211 968 l 211 50 l 101 50 l 101 0 l 517 0 l 517 50 l 413 50 l 413 488 b 574 528 469 517 522 528 b 767 493 638 528 700 511 b 999 454 842 474 919 454 b 1189 489 1063 454 1125 465 l 1189 50 l 1085 50 l 1085 0 l 1508 0 l 1508 50 l 1390 50 l 1390 968 z m 799 1293 b 560 1128 793 1289 568 1133 l 594 1086 l 799 1218 l 1001 1086 l 1036 1128 z "},"ĵ":{"ha":954,"x_min":0,"x_max":0,"o":"m 215 254 b 136 175 215 211 181 175 l 128 175 b 365 40 151 113 211 40 b 564 315 514 40 564 211 l 564 968 l 425 968 l 425 1018 l 897 1018 l 897 968 l 765 968 l 765 315 b 375 -10 765 279 714 -10 b 57 242 78 -10 57 185 l 57 254 b 136 333 57 297 93 333 b 215 254 181 333 215 297 z m 661 1293 b 422 1128 656 1289 431 1133 l 457 1086 l 661 1218 l 864 1086 l 899 1128 z "},"Ċ":{"ha":1465,"x_min":0,"x_max":0,"o":"m 1256 210 b 861 47 1156 110 1025 47 b 314 528 560 47 314 263 b 861 1010 314 794 560 1010 b 1256 847 1025 1010 1156 947 l 1303 847 l 1303 1061 l 1256 1061 l 1240 925 b 810 1061 1119 1017 990 1061 b 113 528 439 1061 113 822 b 810 -4 113 235 439 -4 b 1240 131 990 -4 1119 39 l 1256 -4 l 1303 -4 l 1303 210 z m 751 1185 b 813 1124 751 1151 779 1124 b 879 1185 851 1124 879 1151 b 813 1251 879 1222 851 1251 b 751 1185 779 1251 751 1222 z "},"Ă":{"ha":1678,"x_min":0,"x_max":0,"o":"m 93 0 l 449 0 l 449 50 l 303 50 l 429 285 l 1132 285 l 1264 50 l 1149 50 l 1149 0 l 1617 0 l 1617 50 l 1492 50 l 946 1018 l 750 1018 l 242 50 l 93 50 z m 771 942 l 1100 346 l 457 346 z m 933 1083 b 1067 1217 1007 1083 1067 1143 l 1017 1217 b 933 1133 1017 1171 979 1133 l 743 1133 b 660 1217 697 1133 660 1171 l 610 1217 b 743 1083 610 1143 669 1083 z "},"ů":{"ha":1725,"x_min":0,"x_max":0,"o":"m 1154 968 l 1274 968 l 1274 318 b 844 28 1264 233 1204 28 b 414 347 436 28 414 289 l 414 968 l 533 968 l 533 1018 l 90 1018 l 90 968 l 213 968 l 213 354 b 842 -22 213 -6 807 -22 b 1274 149 1004 -22 1150 31 l 1274 0 l 1581 0 l 1581 50 l 1476 50 l 1476 968 l 1610 968 l 1610 1018 l 1154 1018 z m 849 1069 b 964 1185 913 1069 964 1121 b 849 1300 964 1249 913 1300 b 733 1185 785 1300 733 1249 b 849 1069 733 1121 785 1069 z m 849 1250 b 914 1185 885 1250 914 1221 b 849 1119 914 1149 885 1119 b 783 1185 813 1119 783 1149 b 849 1250 783 1221 813 1250 z "},"Ľ":{"ha":1344,"x_min":0,"x_max":0,"o":"m 114 50 l 233 50 l 233 968 l 114 968 l 114 1018 l 539 1018 l 539 968 l 435 968 l 435 50 l 1153 50 l 1175 221 l 1225 221 l 1225 0 l 114 0 z m 651 1147 b 585 1211 651 1183 618 1211 b 525 1146 551 1211 525 1182 b 585 1083 525 1111 551 1083 l 594 1083 b 558 1010 589 1054 575 1024 l 579 992 b 651 1139 628 1032 651 1100 z "},"ţ":{"ha":1346,"x_min":0,"x_max":0,"o":"m 847 0 l 847 50 l 743 50 l 743 968 l 1192 968 l 1207 825 l 1257 825 l 1257 1018 l 28 1018 l 28 825 l 78 825 l 90 968 l 542 968 l 542 50 l 428 50 l 428 0 z "},"/":{"ha":767,"x_min":0,"x_max":0,"o":"m 649 1147 l 593 1147 l 107 -78 l 163 -78 z "},"=":{"ha":969,"x_min":0,"x_max":0,"o":"m 758 597 l 758 647 l 242 647 l 242 597 z m 758 417 l 758 467 l 242 467 l 242 417 z "},"\"":{"ha":388,"x_min":0,"x_max":0,"o":"m 160 1083 l 107 1083 l 107 906 l 160 906 z m 285 1083 l 232 1083 l 232 906 l 285 906 z "},"'":{"ha":250,"x_min":0,"x_max":0,"o":"m 167 972 b 100 1036 167 1008 133 1036 b 40 971 67 1036 40 1007 b 100 908 40 936 67 908 l 110 908 b 74 835 104 879 90 849 l 94 817 b 167 964 143 857 167 925 z "},"e":{"ha":1582,"x_min":0,"x_max":0,"o":"m 882 1003 b 1322 840 1046 1003 1222 940 l 1369 840 l 1369 1054 l 1322 1054 l 1307 918 b 831 1054 1186 1010 1011 1054 b 133 521 460 1054 133 815 b 831 -11 133 228 460 -11 b 1307 124 1011 -11 1186 32 l 1322 -11 l 1369 -11 l 1369 203 l 1322 203 b 882 40 1222 103 1046 40 b 339 464 603 40 371 225 b 586 551 419 524 501 551 l 604 551 b 1039 464 757 551 868 464 b 1204 490 1089 464 1142 472 l 1213 375 l 1261 375 l 1261 654 l 1211 654 l 1204 547 b 1038 514 1144 524 1089 514 b 603 601 885 514 761 594 l 588 601 b 335 522 500 601 417 576 b 882 1003 336 788 582 1003 z "},"Ţ":{"ha":1346,"x_min":0,"x_max":0,"o":"m 847 0 l 847 50 l 743 50 l 743 968 l 1192 968 l 1207 825 l 1257 825 l 1257 1018 l 28 1018 l 28 825 l 78 825 l 90 968 l 542 968 l 542 50 l 428 50 l 428 0 z m 679 -143 b 613 -79 679 -107 646 -79 b 553 -144 579 -79 553 -108 b 613 -207 553 -179 579 -207 l 622 -207 b 586 -281 617 -236 603 -267 l 607 -299 b 679 -151 656 -258 679 -190 z "},"ș":{"ha":1401,"x_min":0,"x_max":0,"o":"m 1183 968 l 1199 826 l 1249 826 l 1249 1018 l 483 1018 b 139 764 433 1018 139 1008 b 678 431 139 524 385 471 b 1144 222 994 386 1144 342 b 853 50 1144 57 894 50 l 214 50 l 199 193 l 139 193 l 139 0 l 906 0 b 1297 308 906 0 1297 3 b 824 619 1297 442 1179 575 b 296 842 597 649 296 686 b 463 968 296 935 389 968 z m 818 -133 b 751 -69 818 -97 785 -69 b 692 -135 718 -69 692 -99 b 751 -197 692 -169 718 -197 l 761 -197 b 725 -271 756 -226 742 -257 l 746 -289 b 818 -142 794 -249 818 -181 z "},"Ș":{"ha":1401,"x_min":0,"x_max":0,"o":"m 1239 315 b 919 610 1239 488 1053 610 l 408 610 b 278 764 340 610 278 697 l 278 772 b 485 971 278 811 289 971 l 1146 971 l 1156 839 l 1204 839 l 1204 1021 l 469 1021 b 107 701 361 1021 107 965 b 411 407 107 535 253 407 l 938 407 b 1068 253 1006 407 1068 319 l 1068 244 b 861 50 1068 207 1057 50 l 181 50 l 157 207 l 107 207 l 107 0 l 869 0 b 1239 315 972 0 1239 47 z m 746 -139 b 679 -75 746 -103 713 -75 b 619 -140 646 -75 619 -104 b 679 -203 619 -175 646 -203 l 689 -203 b 653 -276 683 -232 669 -262 l 674 -294 b 746 -147 722 -254 746 -186 z "},"ë":{"ha":1582,"x_min":0,"x_max":0,"o":"m 882 1003 b 1322 840 1046 1003 1222 940 l 1369 840 l 1369 1054 l 1322 1054 l 1307 918 b 831 1054 1186 1010 1011 1054 b 133 521 460 1054 133 815 b 831 -11 133 228 460 -11 b 1307 124 1011 -11 1186 32 l 1322 -11 l 1369 -11 l 1369 203 l 1322 203 b 882 40 1222 103 1046 40 b 339 464 603 40 371 225 b 586 551 419 524 501 551 l 604 551 b 1039 464 757 551 868 464 b 1204 490 1089 464 1142 472 l 1213 375 l 1261 375 l 1261 654 l 1211 654 l 1204 547 b 1038 514 1144 524 1089 514 b 603 601 885 514 761 594 l 588 601 b 335 522 500 601 417 576 b 882 1003 336 788 582 1003 z m 567 1158 b 628 1097 567 1125 594 1097 b 694 1158 667 1097 694 1125 b 628 1225 694 1196 667 1225 b 567 1158 594 1225 567 1196 z m 888 1158 b 949 1097 888 1125 915 1097 b 1015 1158 988 1097 1015 1125 b 949 1225 1015 1196 988 1225 b 888 1158 915 1225 888 1196 z "},"ê":{"ha":1582,"x_min":0,"x_max":0,"o":"m 882 1003 b 1322 840 1046 1003 1222 940 l 1369 840 l 1369 1054 l 1322 1054 l 1307 918 b 831 1054 1186 1010 1011 1054 b 133 521 460 1054 133 815 b 831 -11 133 228 460 -11 b 1307 124 1011 -11 1186 32 l 1322 -11 l 1369 -11 l 1369 203 l 1322 203 b 882 40 1222 103 1046 40 b 339 464 603 40 371 225 b 586 551 419 524 501 551 l 604 551 b 1039 464 757 551 868 464 b 1204 490 1089 464 1142 472 l 1213 375 l 1261 375 l 1261 654 l 1211 654 l 1204 547 b 1038 514 1144 524 1089 514 b 603 601 885 514 761 594 l 588 601 b 335 522 500 601 417 576 b 882 1003 336 788 582 1003 z m 792 1293 b 553 1128 786 1289 561 1133 l 588 1086 l 792 1218 l 994 1086 l 1029 1128 z "},"ě":{"ha":1582,"x_min":0,"x_max":0,"o":"m 882 1003 b 1322 840 1046 1003 1222 940 l 1369 840 l 1369 1054 l 1322 1054 l 1307 918 b 831 1054 1186 1010 1011 1054 b 133 521 460 1054 133 815 b 831 -11 133 228 460 -11 b 1307 124 1011 -11 1186 32 l 1322 -11 l 1369 -11 l 1369 203 l 1322 203 b 882 40 1222 103 1046 40 b 339 464 603 40 371 225 b 586 551 419 524 501 551 l 604 551 b 1039 464 757 551 868 464 b 1204 490 1089 464 1142 472 l 1213 375 l 1261 375 l 1261 654 l 1211 654 l 1204 547 b 1038 514 1144 524 1089 514 b 603 601 885 514 761 594 l 588 601 b 335 522 500 601 417 576 b 882 1003 336 788 582 1003 z m 1029 1297 l 994 1339 l 792 1207 l 588 1339 l 553 1297 b 792 1132 561 1292 786 1136 z "},"é":{"ha":1582,"x_min":0,"x_max":0,"o":"m 882 1003 b 1322 840 1046 1003 1222 940 l 1369 840 l 1369 1054 l 1322 1054 l 1307 918 b 831 1054 1186 1010 1011 1054 b 133 521 460 1054 133 815 b 831 -11 133 228 460 -11 b 1307 124 1011 -11 1186 32 l 1322 -11 l 1369 -11 l 1369 203 l 1322 203 b 882 40 1222 103 1046 40 b 339 464 603 40 371 225 b 586 551 419 524 501 551 l 604 551 b 1039 464 757 551 868 464 b 1204 490 1089 464 1142 472 l 1213 375 l 1261 375 l 1261 654 l 1211 654 l 1204 547 b 1038 514 1144 524 1089 514 b 603 601 885 514 761 594 l 588 601 b 335 522 500 601 417 576 b 882 1003 336 788 582 1003 z m 725 1126 l 763 1094 l 939 1275 l 888 1321 z "},"ň":{"ha":1675,"x_min":0,"x_max":0,"o":"m 1119 0 l 1575 0 l 1575 50 l 1442 50 l 1442 669 b 815 1046 1442 1017 889 1046 l 803 1046 b 178 669 772 1046 178 1029 l 178 50 l 56 50 l 56 0 l 499 0 l 499 50 l 379 50 l 379 681 b 810 996 379 739 401 996 b 1240 678 1221 996 1240 728 l 1240 50 l 1119 50 z m 1075 1297 l 1040 1339 l 838 1207 l 633 1339 l 599 1297 b 838 1132 607 1292 832 1136 z "},"ń":{"ha":1675,"x_min":0,"x_max":0,"o":"m 1119 0 l 1575 0 l 1575 50 l 1442 50 l 1442 669 b 815 1046 1442 1017 889 1046 l 803 1046 b 178 669 772 1046 178 1029 l 178 50 l 56 50 l 56 0 l 499 0 l 499 50 l 379 50 l 379 681 b 810 996 379 739 401 996 b 1240 678 1221 996 1240 728 l 1240 50 l 1119 50 z m 731 1154 l 768 1122 l 944 1303 l 893 1349 z "},"í":{"ha":825,"x_min":0,"x_max":0,"o":"m 188 1018 l 188 968 l 285 968 l 285 50 l 189 50 l 189 0 l 590 0 l 590 50 l 486 50 l 486 968 l 590 968 l 590 1018 z m 306 1154 l 343 1122 l 519 1303 l 468 1349 z "},"ĺ":{"ha":1157,"x_min":0,"x_max":0,"o":"m 126 0 l 1144 0 l 1144 221 l 1094 221 l 1072 50 l 424 50 l 424 968 l 528 968 l 528 1018 l 126 1018 l 126 968 l 222 968 l 222 50 l 126 50 z m 217 1154 l 254 1122 l 431 1303 l 379 1349 z "},"ŕ":{"ha":1583,"x_min":0,"x_max":0,"o":"m 1342 50 l 1035 364 b 1392 669 1115 367 1392 394 l 1392 710 b 1021 1018 1392 1007 1068 1018 l 88 1018 l 88 968 l 211 968 l 211 50 l 88 50 l 88 0 l 508 0 l 508 50 l 413 50 l 413 364 b 579 410 472 399 526 410 b 743 385 633 410 686 399 b 792 375 758 382 775 378 l 1160 0 l 1449 0 l 1449 50 z m 747 436 b 582 460 692 449 638 460 l 572 460 b 413 421 517 460 464 446 l 413 968 l 1015 968 b 1221 710 1068 968 1221 943 l 1221 669 b 1085 432 1221 486 1103 438 b 938 407 1032 414 983 407 b 754 435 872 407 813 421 z m 685 1154 l 722 1122 l 899 1303 l 847 1349 z "},"Ý":{"ha":1446,"x_min":0,"x_max":0,"o":"m 1433 968 l 1433 1018 l 1064 1018 l 1064 968 l 1214 968 l 794 433 l 374 968 l 474 968 l 474 1018 l 10 1018 l 10 968 l 140 968 l 613 325 l 613 50 l 492 50 l 492 0 l 936 0 l 936 50 l 817 50 l 817 386 l 1271 968 z m 675 1088 l 713 1056 l 889 1236 l 838 1282 z "},"Ú":{"ha":1638,"x_min":0,"x_max":0,"o":"m 1119 968 l 1240 968 l 1240 368 b 810 50 1240 318 1221 50 b 379 365 401 50 379 307 l 379 968 l 499 968 l 499 1018 l 56 1018 l 56 968 l 178 968 l 178 376 b 803 0 178 17 772 0 l 815 0 b 1442 376 889 0 1442 29 l 1442 968 l 1575 968 l 1575 1018 l 1119 1018 z m 711 1154 l 749 1122 l 925 1303 l 874 1349 z "},"Ó":{"ha":1818,"x_min":0,"x_max":0,"o":"m 1017 1040 l 757 1040 b 82 508 385 1040 82 803 b 757 -22 82 215 385 -22 l 1017 -22 b 1688 508 1388 -21 1688 217 b 1017 1040 1688 801 1388 1039 z m 1014 28 l 757 28 b 285 508 496 28 285 243 b 757 990 285 775 496 990 l 1014 990 b 1486 508 1275 990 1486 775 b 1014 28 1486 243 1275 28 z m 801 1154 l 839 1122 l 1015 1303 l 964 1349 z "},"Ň":{"ha":1628,"x_min":0,"x_max":0,"o":"m 126 968 l 222 968 l 222 50 l 83 50 l 83 0 l 422 0 l 422 50 l 283 50 l 283 936 l 1125 0 l 1367 0 l 1367 968 l 1506 968 l 1506 1018 l 1167 1018 l 1167 968 l 1306 968 l 1306 68 l 451 1018 l 126 1018 z m 1051 1297 l 1017 1339 l 814 1207 l 610 1339 l 575 1297 b 814 1132 583 1292 808 1136 z "},"ź":{"ha":1421,"x_min":0,"x_max":0,"o":"m 1235 194 l 1207 50 l 389 50 l 1251 968 l 1251 1018 l 118 1018 l 118 825 l 167 825 l 188 968 l 972 968 l 108 50 l 108 0 l 1283 0 l 1283 194 z m 603 1154 l 640 1122 l 817 1303 l 765 1349 z "},"ž":{"ha":1421,"x_min":0,"x_max":0,"o":"m 1235 194 l 1207 50 l 389 50 l 1251 968 l 1251 1018 l 118 1018 l 118 825 l 167 825 l 188 968 l 972 968 l 108 50 l 108 0 l 1283 0 l 1283 194 z m 949 1297 l 914 1339 l 711 1207 l 507 1339 l 472 1297 b 711 1132 481 1292 706 1136 z "},"Ŕ":{"ha":1613,"x_min":0,"x_max":0,"o":"m 1017 968 b 1215 710 1063 967 1215 943 l 1215 669 b 1010 417 1215 429 1071 417 l 407 417 l 407 968 z m 1029 367 b 1386 669 1110 369 1386 394 l 1386 710 b 1015 1018 1386 1007 1063 1018 l 96 1018 l 96 968 l 206 968 l 206 50 l 96 50 l 96 0 l 517 0 l 517 50 l 407 50 l 407 367 l 797 367 l 1154 0 l 1443 0 l 1443 50 l 1336 50 z m 699 1154 l 736 1122 l 913 1303 l 861 1349 z "},"Á":{"ha":1678,"x_min":0,"x_max":0,"o":"m 93 0 l 449 0 l 449 50 l 303 50 l 429 285 l 1132 285 l 1264 50 l 1149 50 l 1149 0 l 1617 0 l 1617 50 l 1492 50 l 946 1018 l 750 1018 l 242 50 l 93 50 z m 771 942 l 1100 346 l 457 346 z m 732 1154 l 769 1122 l 946 1303 l 894 1349 z "},"Ć":{"ha":1465,"x_min":0,"x_max":0,"o":"m 1256 210 b 861 47 1156 110 1025 47 b 314 528 560 47 314 263 b 861 1010 314 794 560 1010 b 1256 847 1025 1010 1156 947 l 1303 847 l 1303 1061 l 1256 1061 l 1240 925 b 810 1061 1119 1017 990 1061 b 113 528 439 1061 113 822 b 810 -4 113 235 439 -4 b 1240 131 990 -4 1119 39 l 1256 -4 l 1303 -4 l 1303 210 z m 625 1154 l 663 1122 l 839 1303 l 788 1349 z "},"Č":{"ha":1465,"x_min":0,"x_max":0,"o":"m 1256 210 b 861 47 1156 110 1025 47 b 314 528 560 47 314 263 b 861 1010 314 794 560 1010 b 1256 847 1025 1010 1156 947 l 1303 847 l 1303 1061 l 1256 1061 l 1240 925 b 810 1061 1119 1017 990 1061 b 113 528 439 1061 113 822 b 810 -4 113 235 439 -4 b 1240 131 990 -4 1119 39 l 1256 -4 l 1303 -4 l 1303 210 z m 971 1297 l 936 1339 l 733 1207 l 529 1339 l 494 1297 b 733 1132 503 1292 728 1136 z "},"É":{"ha":1432,"x_min":0,"x_max":0,"o":"m 926 550 l 413 550 l 413 968 l 1167 968 l 1181 826 l 1229 826 l 1229 1018 l 124 1018 l 124 968 l 211 968 l 211 50 l 121 50 l 121 0 l 1229 0 l 1229 190 l 1181 190 l 1167 50 l 413 50 l 413 500 l 926 500 l 940 381 l 990 381 l 990 660 l 940 660 z m 608 1154 l 646 1122 l 822 1303 l 771 1349 z "},"Ě":{"ha":1432,"x_min":0,"x_max":0,"o":"m 926 550 l 413 550 l 413 968 l 1167 968 l 1181 826 l 1229 826 l 1229 1018 l 124 1018 l 124 968 l 211 968 l 211 50 l 121 50 l 121 0 l 1229 0 l 1229 190 l 1181 190 l 1167 50 l 413 50 l 413 500 l 926 500 l 940 381 l 990 381 l 990 660 l 940 660 z m 954 1297 l 919 1339 l 717 1207 l 513 1339 l 478 1297 b 717 1132 486 1292 711 1136 z "},"Í":{"ha":825,"x_min":0,"x_max":0,"o":"m 188 1018 l 188 968 l 285 968 l 285 50 l 189 50 l 189 0 l 590 0 l 590 50 l 486 50 l 486 968 l 590 968 l 590 1018 z m 306 1154 l 343 1122 l 519 1303 l 468 1349 z "},"Ď":{"ha":1688,"x_min":0,"x_max":0,"o":"m 999 0 b 1567 508 1267 0 1567 232 b 1014 1018 1567 818 1294 1018 l 83 1018 l 83 968 l 228 968 l 228 50 l 83 50 l 83 0 z m 1364 508 b 1014 50 1364 285 1183 50 l 429 50 l 429 968 l 1014 968 b 1364 508 1221 968 1364 733 z m 1004 1297 l 969 1339 l 767 1207 l 563 1339 l 528 1297 b 767 1132 536 1292 761 1136 z "},"Ń":{"ha":1628,"x_min":0,"x_max":0,"o":"m 126 968 l 222 968 l 222 50 l 83 50 l 83 0 l 422 0 l 422 50 l 283 50 l 283 936 l 1125 0 l 1367 0 l 1367 968 l 1506 968 l 1506 1018 l 1167 1018 l 1167 968 l 1306 968 l 1306 68 l 451 1018 l 126 1018 z m 707 1154 l 744 1122 l 921 1303 l 869 1349 z "},"ř":{"ha":1583,"x_min":0,"x_max":0,"o":"m 1342 50 l 1035 364 b 1392 669 1115 367 1392 394 l 1392 710 b 1021 1018 1392 1007 1068 1018 l 88 1018 l 88 968 l 211 968 l 211 50 l 88 50 l 88 0 l 508 0 l 508 50 l 413 50 l 413 364 b 579 410 472 399 526 410 b 743 385 633 410 686 399 b 792 375 758 382 775 378 l 1160 0 l 1449 0 l 1449 50 z m 747 436 b 582 460 692 449 638 460 l 572 460 b 413 421 517 460 464 446 l 413 968 l 1015 968 b 1221 710 1068 968 1221 943 l 1221 669 b 1085 432 1221 486 1103 438 b 938 407 1032 414 983 407 b 754 435 872 407 813 421 z m 1029 1297 l 994 1339 l 792 1207 l 588 1339 l 553 1297 b 792 1132 561 1292 786 1136 z "},"ý":{"ha":1446,"x_min":0,"x_max":0,"o":"m 1375 968 l 1375 1018 l 1006 1018 l 1006 968 l 1156 968 l 736 433 l 315 968 l 415 968 l 415 1018 l -49 1018 l -49 968 l 82 968 l 554 325 l 554 50 l 433 50 l 433 0 l 878 0 l 878 50 l 758 50 l 758 386 l 1213 968 z m 615 1154 l 653 1122 l 829 1303 l 778 1349 z "},"è":{"ha":1582,"x_min":0,"x_max":0,"o":"m 882 1003 b 1322 840 1046 1003 1222 940 l 1369 840 l 1369 1054 l 1322 1054 l 1307 918 b 831 1054 1186 1010 1011 1054 b 133 521 460 1054 133 815 b 831 -11 133 228 460 -11 b 1307 124 1011 -11 1186 32 l 1322 -11 l 1369 -11 l 1369 203 l 1322 203 b 882 40 1222 103 1046 40 b 339 464 603 40 371 225 b 586 551 419 524 501 551 l 604 551 b 1039 464 757 551 868 464 b 1204 490 1089 464 1142 472 l 1213 375 l 1261 375 l 1261 654 l 1211 654 l 1204 547 b 1038 514 1144 524 1089 514 b 603 601 885 514 761 594 l 588 601 b 335 522 500 601 417 576 b 882 1003 336 788 582 1003 z m 735 1304 l 683 1258 l 860 1078 l 897 1110 z "},"ģ":{"ha":1531,"x_min":0,"x_max":0,"o":"m 1467 503 l 1043 503 l 1043 453 l 1158 453 l 1158 82 b 872 21 1071 43 969 21 b 283 501 571 21 283 236 b 872 983 283 768 571 983 b 1313 821 1036 983 1213 921 l 1360 821 l 1360 1035 l 1313 1035 l 1297 899 b 829 1035 1178 989 1006 1033 l 821 1035 b 82 501 450 1035 82 796 b 821 -31 82 208 450 -31 b 1360 122 1035 -31 1161 4 l 1360 453 l 1467 453 z "},"ņ":{"ha":1675,"x_min":0,"x_max":0,"o":"m 1119 0 l 1575 0 l 1575 50 l 1442 50 l 1442 669 b 815 1046 1442 1017 889 1046 l 803 1046 b 178 669 772 1046 178 1029 l 178 50 l 56 50 l 56 0 l 499 0 l 499 50 l 379 50 l 379 681 b 810 996 379 739 401 996 b 1240 678 1221 996 1240 728 l 1240 50 l 1119 50 z "},"&":{"ha":1524,"x_min":0,"x_max":0,"o":"m 308 226 b 297 303 304 239 297 267 b 317 400 297 332 301 365 b 447 535 347 474 404 514 l 876 160 b 581 68 806 106 690 68 b 308 226 463 68 353 113 z m 1257 529 l 1393 529 l 1393 579 l 1054 579 l 1054 529 l 1188 529 l 1001 304 l 583 669 b 472 839 565 688 472 756 b 481 881 472 853 475 867 b 724 981 513 957 614 981 b 1050 938 851 981 993 950 l 1058 974 b 742 1017 1058 974 860 1017 l 713 1017 b 293 775 558 1017 303 1000 l 293 769 b 407 571 293 667 407 571 l 413 565 b 107 272 306 536 107 460 b 110 238 107 261 108 250 b 501 -12 136 14 388 -12 b 557 -10 535 -12 557 -10 l 572 -10 b 913 128 619 -10 764 1 l 1058 1 l 1350 1 l 1039 272 z "},"¸":{"ha":1157,"x_min":0,"x_max":0,"o":"m 578 -90 b 542 -96 565 -90 553 -92 l 581 7 l 519 7 l 460 -175 l 511 -175 b 578 -140 522 -154 547 -140 b 643 -206 614 -140 643 -169 b 578 -271 643 -242 614 -271 b 515 -236 551 -271 526 -258 l 475 -258 b 578 -321 494 -296 533 -321 b 693 -206 642 -321 693 -269 b 578 -90 693 -142 642 -90 z "},"ç":{"ha":1465,"x_min":0,"x_max":0,"o":"m 1256 210 b 861 47 1156 110 1025 47 b 314 528 560 47 314 263 b 861 1010 314 794 560 1010 b 1256 847 1025 1010 1156 947 l 1303 847 l 1303 1061 l 1256 1061 l 1240 925 b 810 1061 1119 1017 990 1061 b 113 528 439 1061 113 822 b 810 -4 113 235 439 -4 b 1240 131 990 -4 1119 39 l 1256 -4 l 1303 -4 l 1303 210 z m 854 -90 b 818 -96 842 -90 829 -92 l 857 7 l 796 7 l 736 -175 l 788 -175 b 854 -140 799 -154 824 -140 b 919 -206 890 -140 919 -169 b 854 -271 919 -242 890 -271 b 792 -236 828 -271 803 -258 l 751 -258 b 854 -321 771 -296 810 -321 b 969 -206 918 -321 969 -269 b 854 -90 969 -142 918 -90 z "},"ş":{"ha":1401,"x_min":0,"x_max":0,"o":"m 1183 968 l 1199 826 l 1249 826 l 1249 1018 l 483 1018 b 139 764 433 1018 139 1008 b 678 431 139 524 385 471 b 1144 222 994 386 1144 342 b 853 50 1144 57 894 50 l 214 50 l 199 193 l 139 193 l 139 0 l 906 0 b 1297 308 906 0 1297 3 b 824 619 1297 442 1179 575 b 296 842 597 649 296 686 b 463 968 296 935 389 968 z m 701 -90 b 665 -96 689 -90 676 -92 l 704 7 l 643 7 l 583 -175 l 635 -175 b 701 -140 646 -154 671 -140 b 767 -206 738 -140 767 -169 b 701 -271 767 -242 738 -271 b 639 -236 675 -271 650 -258 l 599 -258 b 701 -321 618 -296 657 -321 b 817 -206 765 -321 817 -269 b 701 -90 817 -142 765 -90 z "},"˙":{"ha":1197,"x_min":0,"x_max":0,"o":"m 553 1186 b 614 1125 553 1153 581 1125 b 681 1186 653 1125 681 1153 b 614 1253 681 1224 653 1253 b 553 1186 581 1253 553 1224 z "},"Ġ":{"ha":1531,"x_min":0,"x_max":0,"o":"m 1467 503 l 1043 503 l 1043 453 l 1158 453 l 1158 82 b 872 21 1071 43 969 21 b 283 501 571 21 283 236 b 872 983 283 768 571 983 b 1313 821 1036 983 1213 921 l 1360 821 l 1360 1035 l 1313 1035 l 1297 899 b 829 1035 1178 989 1006 1033 l 821 1035 b 82 501 450 1035 82 796 b 821 -31 82 208 450 -31 b 1360 122 1035 -31 1161 4 l 1360 453 l 1467 453 z m 701 1172 b 763 1111 701 1139 729 1111 b 829 1172 801 1111 829 1139 b 763 1239 829 1210 801 1239 b 701 1172 729 1239 701 1210 z "},"ġ":{"ha":1531,"x_min":0,"x_max":0,"o":"m 1467 503 l 1043 503 l 1043 453 l 1158 453 l 1158 82 b 872 21 1071 43 969 21 b 283 501 571 21 283 236 b 872 983 283 768 571 983 b 1313 821 1036 983 1213 921 l 1360 821 l 1360 1035 l 1313 1035 l 1297 899 b 829 1035 1178 989 1006 1033 l 821 1035 b 82 501 450 1035 82 796 b 821 -31 82 208 450 -31 b 1360 122 1035 -31 1161 4 l 1360 453 l 1467 453 z m 701 1186 b 763 1125 701 1153 729 1125 b 829 1186 801 1125 829 1153 b 763 1253 829 1224 801 1253 b 701 1186 729 1253 701 1224 z "},"Ř":{"ha":1613,"x_min":0,"x_max":0,"o":"m 1017 968 b 1215 710 1063 967 1215 943 l 1215 669 b 1010 417 1215 429 1071 417 l 407 417 l 407 968 z m 1029 367 b 1386 669 1110 369 1386 394 l 1386 710 b 1015 1018 1386 1007 1063 1018 l 96 1018 l 96 968 l 206 968 l 206 50 l 96 50 l 96 0 l 517 0 l 517 50 l 407 50 l 407 367 l 797 367 l 1154 0 l 1443 0 l 1443 50 l 1336 50 z m 922 1297 l 888 1339 l 685 1207 l 481 1339 l 446 1297 b 685 1132 454 1292 679 1136 z "},"Ç":{"ha":1465,"x_min":0,"x_max":0,"o":"m 1256 210 b 861 47 1156 110 1025 47 b 314 528 560 47 314 263 b 861 1010 314 794 560 1010 b 1256 847 1025 1010 1156 947 l 1303 847 l 1303 1061 l 1256 1061 l 1240 925 b 810 1061 1119 1017 990 1061 b 113 528 439 1061 113 822 b 810 -4 113 235 439 -4 b 1240 131 990 -4 1119 39 l 1256 -4 l 1303 -4 l 1303 210 z m 733 -90 b 697 -96 721 -90 708 -92 l 736 7 l 675 7 l 615 -175 l 667 -175 b 733 -140 678 -154 703 -140 b 799 -206 769 -140 799 -169 b 733 -271 799 -242 769 -271 b 671 -236 707 -271 682 -258 l 631 -258 b 733 -321 650 -296 689 -321 b 849 -206 797 -321 849 -269 b 733 -90 849 -142 797 -90 z "},"ó":{"ha":1824,"x_min":0,"x_max":0,"o":"m 1017 1040 l 757 1040 b 82 508 385 1040 82 803 b 757 -22 82 215 385 -22 l 1017 -22 b 1688 508 1388 -21 1688 217 b 1017 1040 1688 801 1388 1039 z m 1014 28 l 757 28 b 285 508 496 28 285 243 b 757 990 285 775 496 990 l 1014 990 b 1486 508 1275 990 1486 775 b 1014 28 1486 243 1275 28 z m 815 529 b 876 468 815 496 843 468 b 943 529 915 468 943 496 b 876 596 943 567 915 596 b 815 529 843 596 815 567 z m 804 1154 l 842 1122 l 1018 1303 l 967 1349 z "},"Ĺ":{"ha":1344,"x_min":0,"x_max":0,"o":"m 114 0 l 1225 0 l 1225 221 l 1175 221 l 1153 50 l 435 50 l 435 968 l 539 968 l 539 1018 l 114 1018 l 114 968 l 233 968 l 233 50 l 114 50 z m 229 1154 l 267 1122 l 443 1303 l 392 1349 z "},"¡":{"ha":493,"x_min":0,"x_max":0,"o":"m 144 914 b 206 847 144 876 172 847 b 272 914 244 847 272 876 b 206 975 272 947 244 975 b 144 914 172 975 144 947 z m 104 0 l 313 0 l 257 714 l 160 714 l 104 0 z "},"?":{"ha":996,"x_min":0,"x_max":0,"o":"m 229 218 l 229 271 b 899 761 247 485 899 417 b 546 1017 899 1028 546 1017 l 31 1017 l 31 969 l 575 969 b 742 839 649 969 742 932 b 182 421 742 601 182 606 l 182 218 z m 147 54 b 208 -7 147 21 175 -7 b 275 54 247 -7 275 21 b 208 121 275 92 247 121 b 147 54 175 121 147 92 z "},"€":{"ha":1511,"x_min":0,"x_max":0,"o":"m 918 1018 b 1313 856 1082 1018 1213 956 l 1360 856 l 1360 1069 l 1313 1069 l 1297 933 b 867 1069 1176 1025 1047 1069 b 182 632 538 1069 243 881 l 72 632 l 72 585 l 172 585 b 169 536 171 561 169 549 b 172 489 169 521 171 504 l 72 489 l 72 442 l 181 442 b 867 4 242 193 536 4 b 1297 139 1047 4 1176 47 l 1313 4 l 1360 4 l 1360 218 l 1313 218 b 918 56 1213 118 1082 56 b 382 442 654 56 432 222 l 954 442 l 954 489 l 374 489 b 371 536 372 504 371 521 b 374 583 371 549 372 561 b 1131 585 878 583 990 583 l 1131 632 l 382 632 b 918 1018 432 853 654 1018 z "},"á":{"ha":1649,"x_min":0,"x_max":0,"o":"m 1457 50 l 911 1018 l 715 1018 l 207 50 l 58 50 l 58 0 l 386 0 l 386 50 l 268 50 l 397 294 b 547 358 451 342 499 358 b 696 328 593 358 640 344 b 893 290 754 310 821 290 b 1072 333 956 290 1014 304 l 1229 50 l 1128 50 l 1128 0 l 1568 0 l 1568 50 z m 893 340 b 710 375 831 340 769 357 b 547 408 654 392 600 408 l 540 408 b 444 385 507 407 475 400 l 736 942 l 1047 378 b 893 340 997 353 946 340 z m 717 1154 l 754 1122 l 931 1303 l 879 1349 z "},"Ø":{"ha":1818,"x_min":0,"x_max":0,"o":"m 1381 967 l 1443 1025 l 1414 1056 l 1336 985 b 1040 1040 1247 1019 1147 1040 l 781 1040 b 106 508 408 1040 106 803 b 364 90 106 339 207 188 l 238 -26 l 267 -57 l 403 68 b 781 -22 511 11 640 -22 l 1040 -22 b 1711 508 1411 -21 1711 217 b 1381 967 1711 704 1579 874 z m 308 508 b 781 990 308 775 519 990 l 1038 990 b 1272 926 1124 990 1204 967 l 447 168 b 308 508 361 254 308 375 z m 1038 28 l 781 28 b 479 139 665 28 561 69 l 1310 901 b 1510 508 1431 815 1510 671 b 1038 28 1510 243 1299 28 z "},"Ş":{"ha":1401,"x_min":0,"x_max":0,"o":"m 1239 315 b 919 610 1239 488 1053 610 l 408 610 b 278 764 340 610 278 697 l 278 772 b 485 971 278 811 289 971 l 1146 971 l 1156 839 l 1204 839 l 1204 1021 l 469 1021 b 107 701 361 1021 107 965 b 411 407 107 535 253 407 l 938 407 b 1068 253 1006 407 1068 319 l 1068 244 b 861 50 1068 207 1057 50 l 181 50 l 157 207 l 107 207 l 107 0 l 869 0 b 1239 315 972 0 1239 47 z m 701 -90 b 665 -96 689 -90 676 -92 l 704 7 l 643 7 l 583 -175 l 635 -175 b 701 -140 646 -154 671 -140 b 767 -206 738 -140 767 -169 b 701 -271 767 -242 738 -271 b 639 -236 675 -271 650 -258 l 599 -258 b 701 -321 618 -296 657 -321 b 817 -206 765 -321 817 -269 b 701 -90 817 -142 765 -90 z "},"ē":{"ha":1582,"x_min":0,"x_max":0,"o":"m 882 1003 b 1322 840 1046 1003 1222 940 l 1369 840 l 1369 1054 l 1322 1054 l 1307 918 b 831 1054 1186 1010 1011 1054 b 133 521 460 1054 133 815 b 831 -11 133 228 460 -11 b 1307 124 1011 -11 1186 32 l 1322 -11 l 1369 -11 l 1369 203 l 1322 203 b 882 40 1222 103 1046 40 b 339 464 603 40 371 225 b 586 551 419 524 501 551 l 604 551 b 1039 464 757 551 868 464 b 1204 490 1089 464 1142 472 l 1213 375 l 1261 375 l 1261 654 l 1211 654 l 1204 547 b 1038 514 1144 524 1089 514 b 603 601 885 514 761 594 l 588 601 b 335 522 500 601 417 576 b 882 1003 336 788 582 1003 z m 1063 1121 l 1063 1171 l 518 1171 l 518 1121 z "},"ċ":{"ha":1465,"x_min":0,"x_max":0,"o":"m 1256 210 b 861 47 1156 110 1025 47 b 314 528 560 47 314 263 b 861 1010 314 794 560 1010 b 1256 847 1025 1010 1156 947 l 1303 847 l 1303 1061 l 1256 1061 l 1240 925 b 810 1061 1119 1017 990 1061 b 113 528 439 1061 113 822 b 810 -4 113 235 439 -4 b 1240 131 990 -4 1119 39 l 1256 -4 l 1303 -4 l 1303 210 z m 668 1186 b 729 1125 668 1153 696 1125 b 796 1186 768 1125 796 1153 b 729 1253 796 1224 768 1253 b 668 1186 696 1253 668 1224 z "},"Ž":{"ha":1421,"x_min":0,"x_max":0,"o":"m 1235 194 l 1207 50 l 389 50 l 1251 968 l 1251 1018 l 118 1018 l 118 825 l 167 825 l 188 968 l 972 968 l 108 50 l 108 0 l 1283 0 l 1283 194 z m 949 1297 l 914 1339 l 711 1207 l 507 1339 l 472 1297 b 711 1132 481 1292 706 1136 z "},"-":{"ha":828,"x_min":0,"x_max":0,"o":"m 663 506 l 663 556 l 201 556 l 201 506 z "},",":{"ha":269,"x_min":0,"x_max":0,"o":"m 165 65 b 99 129 165 101 132 129 b 39 64 65 129 39 100 b 99 1 39 29 65 1 l 108 1 b 72 -72 103 -28 89 -58 l 93 -90 b 165 57 142 -50 165 18 z "},"Æ":{"ha":2104,"x_min":0,"x_max":0,"o":"m 1886 193 l 1872 50 l 1231 50 l 1231 413 l 1733 413 l 1744 321 l 1793 321 l 1793 554 l 1744 554 l 1733 463 l 1231 463 l 1231 968 l 1833 968 l 1844 826 l 1894 826 l 1894 1018 l 1028 1018 l 124 49 l -4 49 l -4 -1 l 324 -1 l 324 49 l 200 49 l 540 413 l 1028 413 l 1028 50 l 940 50 l 940 0 l 1936 0 l 1936 193 z m 586 463 l 1028 936 l 1028 463 z "},"æ":{"ha":2514,"x_min":0,"x_max":0,"o":"m 1856 1010 b 2296 847 2019 1010 2196 947 l 2343 847 l 2343 1061 l 2296 1061 l 2281 925 b 1804 1061 2160 1017 1985 1061 b 1310 900 1615 1061 1439 1000 l 1310 1019 l 1106 1019 l 201 50 l 72 50 l 72 0 l 401 0 l 401 50 l 276 50 l 617 414 l 1107 414 l 1107 50 l 1044 50 l 1044 0 l 1374 0 l 1374 50 l 1310 50 l 1310 158 b 1804 -4 1439 58 1615 -4 b 2281 131 1985 -4 2160 39 l 2296 -4 l 2343 -4 l 2343 210 l 2296 210 b 1856 47 2196 110 2019 47 b 1313 471 1576 47 1344 232 b 1560 558 1393 531 1475 558 l 1578 558 b 1993 471 1721 558 1838 478 l 2007 471 b 2178 497 2058 471 2122 481 l 2186 382 l 2235 382 l 2235 661 l 2185 661 l 2178 554 b 2011 521 2122 532 2063 521 l 1994 521 b 1576 608 1847 528 1728 601 l 1561 608 b 1310 531 1475 608 1392 583 l 1310 553 b 1856 1010 1325 807 1565 1010 z m 663 464 l 1107 940 l 1107 464 z "},"Œ":{"ha":2142,"x_min":0,"x_max":0,"o":"m 1933 968 l 1947 826 l 1996 826 l 1996 1018 l 749 1018 b 74 508 375 1018 74 789 b 747 0 74 228 390 0 l 1996 0 l 1996 190 l 1947 190 l 1933 50 l 1235 50 l 1235 500 l 1693 500 l 1707 381 l 1757 381 l 1757 660 l 1707 660 l 1693 550 l 1235 550 l 1235 968 z m 1033 50 l 749 50 b 276 508 488 50 276 254 b 749 968 276 764 488 968 l 1033 968 z "},"œ":{"ha":2239,"x_min":0,"x_max":0,"o":"m 1971 968 l 1985 826 l 2033 826 l 2033 1018 l 758 1018 b 83 508 385 1018 83 789 b 758 0 83 228 392 0 l 2033 0 l 2033 190 l 1985 190 l 1971 50 l 1272 50 l 1272 526 b 1642 443 1394 508 1504 447 l 1661 443 b 1826 469 1713 443 1771 453 l 1835 354 l 1883 354 l 1883 633 l 1833 633 l 1826 526 b 1660 493 1771 504 1711 493 l 1643 493 b 1272 576 1511 499 1403 560 l 1272 968 z m 1071 50 l 758 50 b 286 508 497 50 286 254 b 758 968 286 764 497 968 l 1071 968 z "},"ø":{"ha":1818,"x_min":0,"x_max":0,"o":"m 1381 967 l 1443 1025 l 1414 1056 l 1336 985 b 1040 1040 1247 1019 1147 1040 l 781 1040 b 106 508 408 1040 106 803 b 364 90 106 339 207 188 l 238 -26 l 267 -57 l 403 68 b 781 -22 511 11 640 -22 l 1040 -22 b 1711 508 1411 -21 1711 217 b 1381 967 1711 704 1579 874 z m 308 508 b 781 990 308 775 519 990 l 1038 990 b 1272 926 1124 990 1204 967 l 447 168 b 308 508 361 254 308 375 z m 1038 28 l 781 28 b 479 139 665 28 561 69 l 1310 901 b 1510 508 1431 815 1510 671 b 1038 28 1510 243 1299 28 z "},"š":{"ha":1401,"x_min":0,"x_max":0,"o":"m 1183 968 l 1199 826 l 1249 826 l 1249 1018 l 483 1018 b 139 764 433 1018 139 1008 b 678 431 139 524 385 471 b 1144 222 994 386 1144 342 b 853 50 1144 57 894 50 l 214 50 l 199 193 l 139 193 l 139 0 l 906 0 b 1297 308 906 0 1297 3 b 824 619 1297 442 1179 575 b 296 842 597 649 296 686 b 463 968 296 935 389 968 z m 939 1297 l 904 1339 l 701 1207 l 497 1339 l 463 1297 b 701 1132 471 1292 696 1136 z "},"¥":{"ha":1483,"x_min":0,"x_max":0,"o":"m 640 325 l 640 50 l 519 50 l 519 0 l 964 0 l 964 50 l 844 50 l 844 325 l 1210 325 l 1210 375 l 844 375 l 844 386 l 949 519 l 1211 519 l 1211 569 l 988 569 l 1299 968 l 1461 968 l 1461 1018 l 1092 1018 l 1092 968 l 1242 968 l 822 433 l 401 968 l 501 968 l 501 1018 l 38 1018 l 38 968 l 168 968 l 460 569 l 249 569 l 249 519 l 497 519 l 603 375 l 243 375 l 243 325 z "},"Ķ":{"ha":1504,"x_min":0,"x_max":0,"o":"m 1300 50 l 717 632 l 1158 968 l 1311 968 l 1311 1018 l 942 1018 l 942 968 l 1090 968 l 414 460 l 414 968 l 518 968 l 518 1018 l 115 1018 l 115 968 l 213 968 l 213 50 l 117 50 l 117 0 l 518 0 l 518 50 l 414 50 l 414 403 l 554 510 l 1004 50 l 899 50 l 899 0 l 1413 0 l 1413 50 z m 764 -122 b 697 -58 764 -86 731 -58 b 638 -124 664 -58 638 -87 b 697 -186 638 -158 664 -186 l 707 -186 b 671 -260 701 -215 688 -246 l 692 -278 b 764 -131 740 -237 764 -169 z "},"ŗ":{"ha":1583,"x_min":0,"x_max":0,"o":"m 1342 50 l 1035 364 b 1392 669 1115 367 1392 394 l 1392 710 b 1021 1018 1392 1007 1068 1018 l 88 1018 l 88 968 l 211 968 l 211 50 l 88 50 l 88 0 l 508 0 l 508 50 l 413 50 l 413 364 b 579 410 472 399 526 410 b 743 385 633 410 686 399 b 792 375 758 382 775 378 l 1160 0 l 1449 0 l 1449 50 z m 747 436 b 582 460 692 449 638 460 l 572 460 b 413 421 517 460 464 446 l 413 968 l 1015 968 b 1221 710 1068 968 1221 943 l 1221 669 b 1085 432 1221 486 1103 438 b 938 407 1032 414 983 407 b 754 435 872 407 813 421 z m 854 -86 b 788 -22 854 -50 821 -22 b 728 -87 754 -22 728 -51 b 788 -150 728 -122 754 -150 l 797 -150 b 761 -224 792 -179 778 -210 l 782 -242 b 854 -94 831 -201 854 -133 z "},"$":{"ha":1401,"x_min":0,"x_max":0,"o":"m 650 -99 l 703 -99 l 703 0 l 869 0 b 1239 315 972 0 1239 47 b 919 610 1239 488 1053 610 l 703 610 l 703 971 l 1146 971 l 1156 839 l 1204 839 l 1204 1021 l 703 1021 l 703 1128 l 650 1128 l 650 1021 l 469 1021 b 107 701 361 1021 107 965 b 411 407 107 535 253 407 l 650 407 l 650 50 l 181 50 l 157 207 l 107 207 l 107 0 l 650 0 z m 278 764 l 278 772 b 485 971 278 811 289 971 l 650 971 l 650 610 l 408 610 b 278 764 340 610 278 697 z m 938 407 b 1068 253 1006 407 1068 319 l 1068 244 b 861 50 1068 207 1057 50 l 703 50 l 703 407 z "},"č":{"ha":1465,"x_min":0,"x_max":0,"o":"m 1256 210 b 861 47 1156 110 1025 47 b 314 528 560 47 314 263 b 861 1010 314 794 560 1010 b 1256 847 1025 1010 1156 947 l 1303 847 l 1303 1061 l 1256 1061 l 1240 925 b 810 1061 1119 1017 990 1061 b 113 528 439 1061 113 822 b 810 -4 113 235 439 -4 b 1240 131 990 -4 1119 39 l 1256 -4 l 1303 -4 l 1303 210 z m 1001 1297 l 967 1339 l 764 1207 l 560 1339 l 525 1297 b 764 1132 533 1292 758 1136 z "},"Ð":{"ha":1688,"x_min":0,"x_max":0,"o":"m 228 506 l 228 50 l 83 50 l 83 0 l 999 0 b 1567 508 1267 0 1567 232 b 1014 1018 1567 818 1294 1018 l 83 1018 l 83 968 l 228 968 l 228 556 l 93 556 l 93 506 z m 1364 508 b 1014 50 1364 285 1183 50 l 429 50 l 429 506 l 647 506 l 647 556 l 429 556 l 429 968 l 1014 968 b 1364 508 1221 968 1364 733 z "},"ļ":{"ha":1157,"x_min":0,"x_max":0,"o":"m 126 0 l 1144 0 l 1144 221 l 1094 221 l 1072 50 l 424 50 l 424 968 l 528 968 l 528 1018 l 126 1018 l 126 968 l 222 968 l 222 50 l 126 50 z m 668 -124 b 601 -60 668 -87 635 -60 b 542 -125 568 -60 542 -89 b 601 -187 542 -160 568 -187 l 611 -187 b 575 -261 606 -217 592 -247 l 596 -279 b 668 -132 644 -239 668 -171 z "},"Ļ":{"ha":1344,"x_min":0,"x_max":0,"o":"m 114 0 l 1225 0 l 1225 221 l 1175 221 l 1153 50 l 435 50 l 435 968 l 539 968 l 539 1018 l 114 1018 l 114 968 l 233 968 l 233 50 l 114 50 z m 763 -121 b 696 -57 763 -85 729 -57 b 636 -122 663 -57 636 -86 b 696 -185 636 -157 663 -185 l 706 -185 b 669 -258 700 -214 686 -244 l 690 -276 b 763 -129 739 -236 763 -168 z "},"Ĩ":{"ha":825,"x_min":0,"x_max":0,"o":"m 188 1018 l 188 968 l 285 968 l 285 50 l 189 50 l 189 0 l 590 0 l 590 50 l 486 50 l 486 968 l 590 968 l 590 1018 z m 492 1121 b 635 1167 535 1121 583 1132 l 599 1222 b 492 1188 560 1197 525 1188 b 388 1208 456 1188 422 1199 b 278 1229 353 1219 317 1229 b 142 1174 235 1229 189 1217 l 186 1124 b 278 1163 218 1153 247 1163 b 368 1144 306 1163 335 1154 l 372 1143 b 492 1121 408 1132 447 1121 z "},"ĩ":{"ha":825,"x_min":0,"x_max":0,"o":"m 188 1018 l 188 968 l 285 968 l 285 50 l 189 50 l 189 0 l 590 0 l 590 50 l 486 50 l 486 968 l 590 968 l 590 1018 z m 488 1111 b 631 1157 531 1111 579 1122 l 594 1213 b 488 1178 556 1188 521 1178 b 383 1199 451 1178 418 1189 b 274 1219 349 1210 313 1219 b 138 1164 231 1219 185 1207 l 182 1114 b 274 1153 214 1143 243 1153 b 364 1135 301 1153 331 1144 l 368 1133 b 488 1111 404 1122 443 1111 z "},"Ė":{"ha":1432,"x_min":0,"x_max":0,"o":"m 940 660 l 990 660 l 990 381 l 940 381 l 926 500 l 413 500 l 413 50 l 1167 50 l 1181 190 l 1229 190 l 1229 0 l 121 0 l 121 50 l 211 50 l 211 968 l 124 968 l 124 1018 l 1229 1018 l 1229 826 l 1181 826 l 1167 968 l 413 968 l 413 550 l 926 550 z m 651 1186 b 713 1125 651 1153 679 1125 b 779 1186 751 1125 779 1153 b 713 1253 779 1224 751 1253 b 651 1186 679 1253 651 1224 z "},"Ŷ":{"ha":1446,"x_min":0,"x_max":0,"o":"m 1271 968 l 817 386 l 817 50 l 936 50 l 936 0 l 492 0 l 492 50 l 613 50 l 613 325 l 140 968 l 10 968 l 10 1018 l 474 1018 l 474 968 l 374 968 l 794 433 l 1214 968 l 1064 968 l 1064 1018 l 1433 1018 l 1433 968 z m 724 1293 b 485 1128 718 1289 493 1133 l 519 1086 l 724 1218 l 926 1086 l 961 1128 z "},"ŷ":{"ha":1446,"x_min":0,"x_max":0,"o":"m 1213 968 l 758 386 l 758 50 l 878 50 l 878 0 l 433 0 l 433 50 l 554 50 l 554 325 l 82 968 l -49 968 l -49 1018 l 415 1018 l 415 968 l 315 968 l 736 433 l 1156 968 l 1006 968 l 1006 1018 l 1375 1018 l 1375 968 z m 724 1293 b 485 1128 718 1289 493 1133 l 519 1086 l 724 1218 l 926 1086 l 961 1128 z "},"Ẃ":{"ha":2365,"x_min":0,"x_max":0,"o":"m 811 78 l 363 968 l 450 968 l 450 1018 l 32 1018 l 32 968 l 135 968 l 639 0 l 850 0 l 1207 742 l 1593 0 l 1804 0 l 2271 968 l 2404 968 l 2404 1018 l 2076 1018 l 2076 968 l 2196 968 l 1765 78 l 1293 1018 l 1267 1018 z m 1075 1154 l 1113 1122 l 1289 1303 l 1238 1349 z "},"Ẁ":{"ha":2365,"x_min":0,"x_max":0,"o":"m 811 78 l 363 968 l 450 968 l 450 1018 l 32 1018 l 32 968 l 135 968 l 639 0 l 850 0 l 1207 742 l 1593 0 l 1804 0 l 2271 968 l 2404 968 l 2404 1018 l 2076 1018 l 2076 968 l 2196 968 l 1765 78 l 1293 1018 l 1267 1018 z m 1126 1304 l 1075 1258 l 1251 1078 l 1289 1110 z "},"Ỳ":{"ha":1446,"x_min":0,"x_max":0,"o":"m 1271 968 l 817 386 l 817 50 l 936 50 l 936 0 l 492 0 l 492 50 l 613 50 l 613 325 l 140 968 l 10 968 l 10 1018 l 474 1018 l 474 968 l 374 968 l 794 433 l 1214 968 l 1064 968 l 1064 1018 l 1433 1018 l 1433 968 z m 667 1304 l 615 1258 l 792 1078 l 829 1110 z "},"ḃ":{"ha":1529,"x_min":0,"x_max":0,"o":"m 1158 542 b 1326 772 1253 586 1326 669 l 1326 790 b 1011 1018 1326 938 1160 1018 l 107 1018 l 107 968 l 207 968 l 207 50 l 107 50 l 107 0 l 1056 0 b 1389 268 1210 0 1389 100 l 1389 289 b 1158 542 1389 414 1278 507 z m 953 968 b 1156 774 1085 968 1156 864 l 1156 754 b 1097 621 1156 706 1133 657 b 899 547 1054 578 983 551 b 551 615 758 553 657 615 b 410 571 506 615 460 604 l 410 968 z m 1218 268 b 953 50 1218 160 1093 50 l 410 50 l 410 507 b 553 565 461 550 506 565 b 700 535 599 565 646 551 b 906 497 765 515 836 497 b 999 510 938 497 968 501 l 1011 510 b 1218 289 1146 510 1218 389 z m 700 1186 b 761 1125 700 1153 728 1125 b 828 1186 800 1125 828 1153 b 761 1253 828 1224 800 1253 b 700 1186 728 1253 700 1224 z "},"Ḃ":{"ha":1543,"x_min":0,"x_max":0,"o":"m 1408 268 b 1075 0 1408 100 1229 0 l 113 0 l 113 50 l 226 50 l 226 968 l 113 968 l 113 1018 l 1031 1018 b 1346 790 1179 1018 1346 938 l 1346 772 b 1178 542 1346 669 1272 586 b 1408 289 1297 507 1408 414 z m 972 50 b 1238 268 1113 50 1238 160 l 1238 289 b 1031 510 1238 389 1165 510 l 429 510 l 429 50 z m 986 558 b 1175 754 1085 558 1175 656 l 1175 774 b 972 968 1175 864 1104 968 l 429 968 l 429 558 z m 707 1186 b 768 1125 707 1153 735 1125 b 835 1186 807 1125 835 1153 b 768 1253 835 1224 807 1253 b 707 1186 735 1253 707 1224 z "},"ẅ":{"ha":2365,"x_min":0,"x_max":0,"o":"m 811 78 l 363 968 l 450 968 l 450 1018 l 32 1018 l 32 968 l 135 968 l 639 0 l 850 0 l 1207 742 l 1593 0 l 1804 0 l 2271 968 l 2404 968 l 2404 1018 l 2076 1018 l 2076 968 l 2196 968 l 1765 78 l 1293 1018 l 1267 1018 z m 1056 1144 b 1117 1083 1056 1111 1083 1083 b 1183 1144 1156 1083 1183 1111 b 1117 1211 1183 1182 1156 1211 b 1056 1144 1083 1211 1056 1182 z m 1376 1144 b 1438 1083 1376 1111 1404 1083 b 1504 1144 1476 1083 1504 1111 b 1438 1211 1504 1182 1476 1211 b 1376 1144 1404 1211 1376 1182 z "},"Ẅ":{"ha":2365,"x_min":0,"x_max":0,"o":"m 811 78 l 363 968 l 450 968 l 450 1018 l 32 1018 l 32 968 l 135 968 l 639 0 l 850 0 l 1207 742 l 1593 0 l 1804 0 l 2271 968 l 2404 968 l 2404 1018 l 2076 1018 l 2076 968 l 2196 968 l 1765 78 l 1293 1018 l 1267 1018 z m 1054 1144 b 1115 1083 1054 1111 1082 1083 b 1182 1144 1154 1083 1182 1111 b 1115 1211 1182 1182 1154 1211 b 1054 1144 1082 1211 1054 1182 z m 1375 1144 b 1436 1083 1375 1111 1403 1083 b 1503 1144 1475 1083 1503 1111 b 1436 1211 1503 1182 1475 1211 b 1375 1144 1403 1211 1375 1182 z "},"ỳ":{"ha":1446,"x_min":0,"x_max":0,"o":"m 1213 968 l 758 386 l 758 50 l 878 50 l 878 0 l 433 0 l 433 50 l 554 50 l 554 325 l 82 968 l -49 968 l -49 1018 l 415 1018 l 415 968 l 315 968 l 736 433 l 1156 968 l 1006 968 l 1006 1018 l 1375 1018 l 1375 968 z m 667 1304 l 615 1258 l 792 1078 l 829 1110 z "},"Ṡ":{"ha":1401,"x_min":0,"x_max":0,"o":"m 1239 315 b 919 610 1239 488 1053 610 l 408 610 b 278 764 340 610 278 697 l 278 772 b 485 971 278 811 289 971 l 1146 971 l 1156 839 l 1204 839 l 1204 1021 l 469 1021 b 107 701 361 1021 107 965 b 411 407 107 535 253 407 l 938 407 b 1068 253 1006 407 1068 319 l 1068 244 b 861 50 1068 207 1057 50 l 181 50 l 157 207 l 107 207 l 107 0 l 869 0 b 1239 315 972 0 1239 47 z m 636 1186 b 697 1125 636 1153 664 1125 b 764 1186 736 1125 764 1153 b 697 1253 764 1224 736 1253 b 636 1186 664 1253 636 1224 z "},"ẃ":{"ha":2365,"x_min":0,"x_max":0,"o":"m 811 78 l 363 968 l 450 968 l 450 1018 l 32 1018 l 32 968 l 135 968 l 639 0 l 850 0 l 1207 742 l 1593 0 l 1804 0 l 2271 968 l 2404 968 l 2404 1018 l 2076 1018 l 2076 968 l 2196 968 l 1765 78 l 1293 1018 l 1267 1018 z m 1075 1154 l 1113 1122 l 1289 1303 l 1238 1349 z "},"ẁ":{"ha":2365,"x_min":0,"x_max":0,"o":"m 811 78 l 363 968 l 450 968 l 450 1018 l 32 1018 l 32 968 l 135 968 l 639 0 l 850 0 l 1207 742 l 1593 0 l 1804 0 l 2271 968 l 2404 968 l 2404 1018 l 2076 1018 l 2076 968 l 2196 968 l 1765 78 l 1293 1018 l 1267 1018 z m 1126 1304 l 1075 1258 l 1251 1078 l 1289 1110 z "},"Ṗ":{"ha":1454,"x_min":0,"x_max":0,"o":"m 1015 414 l 413 414 l 413 968 l 1015 968 b 1221 713 1064 968 1221 953 l 1221 669 b 1025 415 1221 429 1072 419 b 1015 414 1021 415 1018 414 z m 1015 364 b 1392 669 1050 364 1392 364 l 1392 710 b 1021 1018 1392 1007 1068 1018 l 115 1018 l 115 968 l 211 968 l 211 50 l 115 50 l 115 0 l 517 0 l 517 50 l 413 50 l 413 364 z m 663 1186 b 724 1125 663 1153 690 1125 b 790 1186 763 1125 790 1153 b 724 1253 790 1224 763 1253 b 663 1186 690 1253 663 1224 z "},"ṗ":{"ha":1518,"x_min":0,"x_max":0,"o":"m 121 1018 l 121 968 l 217 968 l 217 50 l 121 50 l 121 0 l 522 0 l 522 50 l 418 50 l 418 385 b 568 428 472 417 521 428 b 964 350 690 428 799 350 l 983 350 b 1397 669 1018 350 1397 364 l 1397 710 b 1026 1018 1397 1007 1074 1018 z m 1226 710 l 1226 669 b 1021 403 1226 410 1051 414 b 965 399 1001 400 983 399 b 564 476 819 399 699 476 b 418 442 517 476 469 467 l 418 968 l 1021 968 b 1226 710 1069 968 1226 953 z m 694 1186 b 756 1125 694 1153 722 1125 b 822 1186 794 1125 822 1153 b 756 1253 822 1224 794 1253 b 694 1186 722 1253 694 1224 z "},"ṁ":{"ha":2803,"x_min":0,"x_max":0,"o":"m 2156 0 l 2611 0 l 2611 50 l 2478 50 l 2478 669 b 1865 1046 2478 1017 1939 1046 l 1853 1046 b 1328 886 1829 1046 1499 1036 b 801 1046 1165 1029 854 1046 l 789 1046 b 178 669 758 1046 178 1029 l 178 50 l 56 50 l 56 0 l 499 0 l 499 50 l 379 50 l 379 681 b 796 996 379 739 388 996 b 1226 678 1207 996 1226 728 l 1226 50 l 1106 50 l 1106 0 l 1556 0 l 1556 50 l 1429 50 l 1429 678 b 1860 996 1429 736 1451 996 b 2276 678 2271 996 2276 728 l 2276 50 l 2156 50 z m 1338 1186 b 1399 1125 1338 1153 1365 1125 b 1465 1186 1438 1125 1465 1153 b 1399 1253 1465 1224 1438 1253 b 1338 1186 1365 1253 1338 1224 z "},"Ṁ":{"ha":1910,"x_min":0,"x_max":0,"o":"m 1779 968 l 1779 1018 l 1468 1018 l 911 93 l 340 1018 l 42 1018 l 42 968 l 168 968 l 168 50 l 42 50 l 42 0 l 335 0 l 335 50 l 218 50 l 218 889 l 757 0 l 924 0 l 1474 915 l 1474 50 l 1364 50 l 1364 0 l 1793 0 l 1793 50 l 1675 50 l 1675 968 z m 890 1186 b 951 1125 890 1153 918 1125 b 1018 1186 990 1125 1018 1153 b 951 1253 1018 1224 990 1253 b 890 1186 918 1253 890 1224 z "},"ḟ":{"ha":1318,"x_min":0,"x_max":0,"o":"m 161 1018 l 161 968 l 256 968 l 256 50 l 161 50 l 161 0 l 546 0 l 546 50 l 457 50 l 457 507 b 522 515 479 513 500 515 b 853 460 626 515 726 460 b 1004 483 899 460 953 465 l 1013 369 l 1061 369 l 1061 649 l 1011 649 l 1004 542 b 851 511 947 519 897 511 b 525 565 732 511 636 565 b 457 558 503 565 481 564 l 457 968 l 1210 968 l 1225 826 l 1274 826 l 1274 1018 z m 594 1186 b 656 1125 594 1153 622 1125 b 722 1186 694 1125 722 1153 b 656 1253 722 1224 694 1253 b 594 1186 622 1253 594 1224 z "},"Ḟ":{"ha":1324,"x_min":0,"x_max":0,"o":"m 935 385 l 935 660 l 883 660 l 869 550 l 357 550 l 357 968 l 1111 968 l 1125 826 l 1174 826 l 1174 1018 l 61 1018 l 61 968 l 156 968 l 156 50 l 61 50 l 61 0 l 446 0 l 446 50 l 357 50 l 357 500 l 869 500 l 883 385 z m 597 1186 b 658 1125 597 1153 625 1125 b 725 1186 697 1125 725 1153 b 658 1253 725 1224 697 1253 b 597 1186 625 1253 597 1224 z "},"ŵ":{"ha":2365,"x_min":0,"x_max":0,"o":"m 811 78 l 363 968 l 450 968 l 450 1018 l 32 1018 l 32 968 l 135 968 l 639 0 l 850 0 l 1207 742 l 1593 0 l 1804 0 l 2271 968 l 2404 968 l 2404 1018 l 2076 1018 l 2076 968 l 2196 968 l 1765 78 l 1293 1018 l 1267 1018 z m 1263 1293 b 1024 1128 1257 1289 1032 1133 l 1058 1086 l 1263 1218 l 1465 1086 l 1500 1128 z "},"Ṫ":{"ha":1346,"x_min":0,"x_max":0,"o":"m 428 0 l 428 50 l 542 50 l 542 968 l 90 968 l 78 825 l 28 825 l 28 1018 l 1257 1018 l 1257 825 l 1207 825 l 1192 968 l 743 968 l 743 50 l 847 50 l 847 0 z m 543 1186 b 604 1125 543 1153 571 1125 b 671 1186 643 1125 671 1153 b 604 1253 671 1224 643 1253 b 543 1186 571 1253 543 1224 z "},"Ŵ":{"ha":2365,"x_min":0,"x_max":0,"o":"m 811 78 l 363 968 l 450 968 l 450 1018 l 32 1018 l 32 968 l 135 968 l 639 0 l 850 0 l 1207 742 l 1593 0 l 1804 0 l 2271 968 l 2404 968 l 2404 1018 l 2076 1018 l 2076 968 l 2196 968 l 1765 78 l 1293 1018 l 1267 1018 z m 1260 1293 b 1021 1128 1254 1289 1029 1133 l 1056 1086 l 1260 1218 l 1463 1086 l 1497 1128 z "},"Ŗ":{"ha":1613,"x_min":0,"x_max":0,"o":"m 1017 968 b 1215 710 1063 967 1215 943 l 1215 669 b 1010 417 1215 429 1071 417 l 407 417 l 407 968 z m 1029 367 b 1386 669 1110 369 1386 394 l 1386 710 b 1015 1018 1386 1007 1063 1018 l 96 1018 l 96 968 l 206 968 l 206 50 l 96 50 l 96 0 l 517 0 l 517 50 l 407 50 l 407 367 l 797 367 l 1154 0 l 1443 0 l 1443 50 l 1336 50 z m 844 -124 b 778 -60 844 -87 811 -60 b 718 -125 744 -60 718 -89 b 778 -187 718 -160 744 -187 l 788 -187 b 751 -261 782 -217 768 -247 l 772 -279 b 844 -132 821 -239 844 -171 z "},"˛":{"ha":1157,"x_min":0,"x_max":0,"o":"m 561 3 b 478 -176 514 -58 478 -121 b 597 -294 478 -247 524 -294 b 735 -236 647 -294 700 -279 b 724 -212 735 -224 731 -217 b 665 -224 706 -222 682 -224 b 568 -121 614 -224 568 -189 b 593 3 568 -83 576 -37 z "},"Ą":{"ha":1678,"x_min":0,"x_max":0,"o":"m 93 0 l 449 0 l 449 50 l 303 50 l 429 285 l 1132 285 l 1264 50 l 1149 50 l 1149 0 l 1617 0 l 1617 50 l 1492 50 l 946 1018 l 750 1018 l 242 50 l 93 50 z m 771 942 l 1100 346 l 457 346 z m 1443 3 b 1360 -176 1396 -58 1360 -121 b 1479 -294 1360 -247 1406 -294 b 1617 -236 1529 -294 1582 -279 b 1606 -212 1617 -224 1613 -217 b 1547 -224 1588 -222 1564 -224 b 1450 -121 1496 -224 1450 -189 b 1475 3 1450 -83 1458 -37 z "},"Į":{"ha":825,"x_min":0,"x_max":0,"o":"m 188 1018 l 188 968 l 285 968 l 285 50 l 189 50 l 189 0 l 590 0 l 590 50 l 486 50 l 486 968 l 590 968 l 590 1018 z m 417 3 b 333 -176 369 -58 333 -121 b 453 -294 333 -247 379 -294 b 590 -236 503 -294 556 -279 b 579 -212 590 -224 586 -217 b 521 -224 561 -222 538 -224 b 424 -121 469 -224 424 -189 b 449 3 424 -83 432 -37 z "},"Ę":{"ha":1432,"x_min":0,"x_max":0,"o":"m 926 550 l 413 550 l 413 968 l 1167 968 l 1181 826 l 1229 826 l 1229 1018 l 124 1018 l 124 968 l 211 968 l 211 50 l 121 50 l 121 0 l 1229 0 l 1229 190 l 1181 190 l 1167 50 l 413 50 l 413 500 l 926 500 l 940 381 l 990 381 l 990 660 l 940 660 z m 1056 3 b 972 -176 1008 -58 972 -121 b 1092 -294 972 -247 1018 -294 b 1229 -236 1142 -294 1194 -279 b 1218 -212 1229 -224 1225 -217 b 1160 -224 1200 -222 1176 -224 b 1063 -121 1108 -224 1063 -189 b 1088 3 1063 -83 1071 -37 z "},"ų":{"ha":1725,"x_min":0,"x_max":0,"o":"m 1154 968 l 1274 968 l 1274 318 b 844 28 1264 233 1204 28 b 414 347 436 28 414 289 l 414 968 l 533 968 l 533 1018 l 90 1018 l 90 968 l 213 968 l 213 354 b 842 -22 213 -6 807 -22 b 1274 149 1004 -22 1150 31 l 1274 0 l 1581 0 l 1581 50 l 1476 50 l 1476 968 l 1610 968 l 1610 1018 l 1154 1018 z m 1436 3 b 1353 -176 1389 -58 1353 -121 b 1472 -294 1353 -247 1399 -294 b 1610 -236 1522 -294 1575 -279 b 1599 -212 1610 -224 1606 -217 b 1540 -224 1581 -222 1557 -224 b 1443 -121 1489 -224 1443 -189 b 1468 3 1443 -83 1451 -37 z "},"ą":{"ha":1649,"x_min":0,"x_max":0,"o":"m 1457 50 l 911 1018 l 715 1018 l 207 50 l 58 50 l 58 0 l 386 0 l 386 50 l 268 50 l 397 294 b 547 358 451 342 499 358 b 696 328 593 358 640 344 b 893 290 754 310 821 290 b 1072 333 956 290 1014 304 l 1229 50 l 1128 50 l 1128 0 l 1568 0 l 1568 50 z m 893 340 b 710 375 831 340 769 357 b 547 408 654 392 600 408 l 540 408 b 444 385 507 407 475 400 l 736 942 l 1047 378 b 893 340 997 353 946 340 z m 1422 3 b 1339 -176 1375 -58 1339 -121 b 1458 -294 1339 -247 1385 -294 b 1596 -236 1508 -294 1561 -279 b 1585 -212 1596 -224 1592 -217 b 1526 -224 1567 -222 1543 -224 b 1429 -121 1475 -224 1429 -189 b 1454 3 1429 -83 1438 -37 z "},"į":{"ha":825,"x_min":0,"x_max":0,"o":"m 188 1018 l 188 968 l 285 968 l 285 50 l 189 50 l 189 0 l 590 0 l 590 50 l 486 50 l 486 968 l 590 968 l 590 1018 z m 368 3 b 285 -176 321 -58 285 -121 b 404 -294 285 -247 331 -294 b 542 -236 454 -294 507 -279 b 531 -212 542 -224 538 -217 b 472 -224 513 -222 489 -224 b 375 -121 421 -224 375 -189 b 400 3 375 -83 383 -37 z "},"Ų":{"ha":1638,"x_min":0,"x_max":0,"o":"m 1119 968 l 1240 968 l 1240 368 b 810 50 1240 318 1221 50 b 379 365 401 50 379 307 l 379 968 l 499 968 l 499 1018 l 56 1018 l 56 968 l 178 968 l 178 376 b 803 0 178 17 772 0 l 815 0 b 1442 376 889 0 1442 29 l 1442 968 l 1575 968 l 1575 1018 l 1119 1018 z m 804 3 b 721 -176 757 -58 721 -121 b 840 -294 721 -247 767 -294 b 978 -236 890 -294 943 -279 b 967 -212 978 -224 974 -217 b 908 -224 949 -222 925 -224 b 811 -121 857 -224 811 -189 b 836 3 811 -83 819 -37 z "},"ę":{"ha":1582,"x_min":0,"x_max":0,"o":"m 882 1003 b 1322 840 1046 1003 1222 940 l 1369 840 l 1369 1054 l 1322 1054 l 1307 918 b 831 1054 1186 1010 1011 1054 b 133 521 460 1054 133 815 b 831 -11 133 228 460 -11 b 1307 124 1011 -11 1186 32 l 1322 -11 l 1369 -11 l 1369 203 l 1322 203 b 882 40 1222 103 1046 40 b 339 464 603 40 371 225 b 586 551 419 524 501 551 l 604 551 b 1039 464 757 551 868 464 b 1204 490 1089 464 1142 472 l 1213 375 l 1261 375 l 1261 654 l 1211 654 l 1204 547 b 1038 514 1144 524 1089 514 b 603 601 885 514 761 594 l 588 601 b 335 522 500 601 417 576 b 882 1003 336 788 582 1003 z m 1260 72 b 1176 -107 1213 11 1176 -51 b 1296 -225 1176 -178 1222 -225 b 1433 -167 1346 -225 1399 -210 b 1422 -143 1433 -154 1429 -147 b 1364 -154 1404 -153 1381 -154 b 1267 -51 1313 -154 1267 -119 b 1292 72 1267 -14 1275 32 z "},"Ť":{"ha":1346,"x_min":0,"x_max":0,"o":"m 847 0 l 847 50 l 743 50 l 743 968 l 1192 968 l 1207 825 l 1257 825 l 1257 1018 l 28 1018 l 28 825 l 78 825 l 90 968 l 542 968 l 542 50 l 428 50 l 428 0 z m 842 1297 l 807 1339 l 604 1207 l 400 1339 l 365 1297 b 604 1132 374 1292 599 1136 z "},"ť":{"ha":1793,"x_min":0,"x_max":0,"o":"m 847 0 l 847 50 l 743 50 l 743 968 l 1192 968 l 1207 825 l 1257 825 l 1257 1018 l 28 1018 l 28 825 l 78 825 l 90 968 l 542 968 l 542 50 l 428 50 l 428 0 z m 936 839 b 869 903 936 875 903 903 b 810 838 836 903 810 874 b 869 775 810 803 836 775 l 879 775 b 843 701 874 746 860 715 l 864 683 b 936 831 913 724 936 792 z "},"{":{"ha":583,"x_min":0,"x_max":0,"o":"m 449 -57 l 449 -7 l 350 -7 b 321 22 333 -7 321 6 l 321 418 b 290 479 321 442 310 464 l 251 510 l 292 543 b 321 603 310 558 321 581 l 321 996 b 350 1025 321 1013 333 1025 l 449 1025 l 449 1075 l 285 1075 b 201 992 239 1075 201 1038 l 201 606 b 172 542 201 581 190 557 l 132 510 l 169 481 b 201 415 190 464 201 440 l 201 26 b 285 -57 201 -19 239 -57 z "},"}":{"ha":583,"x_min":0,"x_max":0,"o":"m 296 -57 b 379 26 342 -57 379 -19 l 379 415 b 411 481 379 440 390 464 l 449 510 l 408 542 b 379 606 390 557 379 581 l 379 992 b 296 1075 379 1038 342 1075 l 132 1075 l 132 1025 l 231 1025 b 260 996 247 1025 260 1013 l 260 603 b 289 543 260 581 271 558 l 329 510 l 290 479 b 260 418 271 464 260 442 l 260 22 b 231 -7 260 6 247 -7 l 132 -7 l 132 -57 z "},"¤":{"ha":839,"x_min":0,"x_max":0,"o":"m 679 629 b 631 774 679 682 663 732 l 706 849 l 667 888 l 593 814 b 438 871 550 850 494 871 b 282 814 381 871 325 850 l 208 888 l 169 849 l 244 774 b 196 629 213 732 196 682 b 253 474 196 572 217 517 l 169 390 l 208 351 l 293 436 b 438 388 335 404 385 388 b 582 436 490 388 540 404 l 667 351 l 706 390 l 622 474 b 679 629 658 517 679 572 z m 310 493 b 251 629 272 529 251 576 b 301 757 251 676 269 722 b 438 815 338 794 385 815 b 574 757 489 815 538 794 b 624 629 606 722 624 676 b 565 493 624 576 603 529 b 438 443 531 461 485 443 b 310 493 390 443 344 461 z "},")":{"ha":847,"x_min":0,"x_max":0,"o":"m 214 1042 l 214 992 b 486 482 378 942 486 678 b 214 -22 486 293 356 33 l 214 -76 b 675 482 440 -40 675 231 b 214 1042 675 761 451 1007 z "},"(":{"ha":847,"x_min":0,"x_max":0,"o":"m 675 1042 b 214 482 438 1007 214 761 b 675 -76 214 231 449 -40 l 675 -22 b 403 482 533 33 403 293 b 675 992 403 678 511 942 l 675 1042 z "},"þ":{"ha":1139,"x_min":0,"x_max":0,"o":"m 549 926 l 418 926 l 418 969 l 522 969 l 522 1019 l 111 1019 l 111 969 l 215 969 l 215 50 l 111 50 l 111 0 l 522 0 l 522 50 l 418 50 l 418 238 l 564 238 b 950 586 764 238 950 399 b 549 926 950 775 775 926 z m 418 274 l 418 888 l 438 888 b 799 579 636 888 799 749 b 481 274 799 422 660 293 z "},"*":{"ha":826,"x_min":0,"x_max":0,"o":"m 685 867 l 450 856 l 622 1015 l 565 1072 l 407 899 l 417 1133 l 335 1133 l 346 899 l 188 1072 l 129 1015 l 303 856 l 68 867 l 68 785 l 303 796 l 129 638 l 188 579 l 346 753 l 335 518 l 417 518 l 407 753 l 565 579 l 622 638 l 450 796 l 685 785 z "},"Þ":{"ha":0,"x_min":0,"x_max":0,"o":""},"¿":{"ha":996,"x_min":0,"x_max":0,"o":"m 801 775 l 801 572 b 242 154 801 388 242 392 b 408 24 242 61 335 24 l 953 24 l 953 -24 l 438 -24 b 85 232 438 -24 85 -35 b 754 722 85 576 736 508 l 754 775 z m 836 939 b 775 1000 836 972 808 1000 b 708 939 736 1000 708 972 b 775 872 708 901 736 872 b 836 939 808 872 836 901 z "},"\\":{"ha":786,"x_min":0,"x_max":0,"o":"m 579 -78 l 635 -78 l 149 1147 l 93 1147 z "},"ő":{"ha":1824,"x_min":0,"x_max":0,"o":"m 624 1154 l 661 1122 l 838 1303 l 786 1349 z m 906 1154 l 943 1122 l 1119 1303 l 1068 1349 z m 1017 1040 l 757 1040 b 82 508 385 1040 82 803 b 757 -22 82 215 385 -22 l 1017 -22 b 1688 508 1388 -21 1688 217 b 1017 1040 1688 801 1388 1039 z m 1014 28 l 757 28 b 285 508 496 28 285 243 b 757 990 285 775 496 990 l 1014 990 b 1486 508 1275 990 1486 775 b 1014 28 1486 243 1275 28 z m 815 529 b 876 468 815 496 843 468 b 943 529 915 468 943 496 b 876 596 943 567 915 596 b 815 529 843 596 815 567 z "},"Ő":{"ha":1818,"x_min":0,"x_max":0,"o":"m 624 1154 l 661 1122 l 838 1303 l 786 1349 z m 906 1154 l 943 1122 l 1119 1303 l 1068 1349 z m 1017 1040 l 757 1040 b 82 508 385 1040 82 803 b 757 -22 82 215 385 -22 l 1017 -22 b 1688 508 1388 -21 1688 217 b 1017 1040 1688 801 1388 1039 z m 1014 28 l 757 28 b 285 508 496 28 285 243 b 757 990 285 775 496 990 l 1014 990 b 1486 508 1275 990 1486 775 b 1014 28 1486 243 1275 28 z "},"Ű":{"ha":1638,"x_min":0,"x_max":0,"o":"m 582 1154 l 619 1122 l 796 1303 l 744 1349 z m 864 1154 l 901 1122 l 1078 1303 l 1026 1349 z m 1119 968 l 1240 968 l 1240 368 b 810 50 1240 318 1221 50 b 379 365 401 50 379 307 l 379 968 l 499 968 l 499 1018 l 56 1018 l 56 968 l 178 968 l 178 376 b 803 0 178 17 772 0 l 815 0 b 1442 376 889 0 1442 29 l 1442 968 l 1575 968 l 1575 1018 l 1119 1018 z "},"Đ":{"ha":1688,"x_min":0,"x_max":0,"o":"m 999 0 b 1567 508 1267 0 1567 232 b 1014 1018 1567 818 1294 1018 l 83 1018 l 83 968 l 228 968 l 228 50 l 83 50 l 83 0 z m 1364 508 b 1014 50 1364 285 1183 50 l 429 50 l 429 968 l 1014 968 b 1364 508 1221 968 1364 733 z m 604 475 l 604 525 l 60 525 l 60 475 z "},"ď":{"ha":1731,"x_min":0,"x_max":0,"o":"m 83 0 l 83 50 l 228 50 l 228 968 l 83 968 l 83 1018 l 1014 1018 b 1567 508 1294 1018 1567 818 b 929 0 1567 232 1265 0 z m 1364 508 b 1014 968 1364 733 1221 968 l 429 968 l 429 50 l 956 50 b 1364 508 1161 50 1364 285 z m 1561 960 b 1494 1024 1561 996 1528 1024 b 1435 958 1461 1024 1435 994 b 1494 896 1435 924 1461 896 l 1504 896 b 1468 822 1499 867 1485 836 l 1489 804 b 1561 951 1538 844 1561 913 z "},"ű":{"ha":1725,"x_min":0,"x_max":0,"o":"m 624 1149 l 661 1117 l 838 1297 l 786 1343 z m 906 1149 l 943 1117 l 1119 1297 l 1068 1343 z m 1154 968 l 1274 968 l 1274 318 b 844 28 1264 233 1204 28 b 414 347 436 28 414 289 l 414 968 l 533 968 l 533 1018 l 90 1018 l 90 968 l 213 968 l 213 354 b 842 -22 213 -6 807 -22 b 1274 149 1004 -22 1150 31 l 1274 0 l 1581 0 l 1581 50 l 1476 50 l 1476 968 l 1610 968 l 1610 1018 l 1154 1018 z "},"ȁ":{"ha":1649,"x_min":0,"x_max":0,"o":"m 1457 50 l 911 1018 l 715 1018 l 207 50 l 58 50 l 58 0 l 386 0 l 386 50 l 268 50 l 397 294 b 547 358 451 342 499 358 b 696 328 593 358 640 344 b 893 290 754 310 821 290 b 1072 333 956 290 1014 304 l 1229 50 l 1128 50 l 1128 0 l 1568 0 l 1568 50 z m 893 340 b 710 375 831 340 769 357 b 547 408 654 392 600 408 l 540 408 b 444 385 507 407 475 400 l 736 942 l 1047 378 b 893 340 997 353 946 340 z "},"ȇ":{"ha":1582,"x_min":0,"x_max":0,"o":"m 882 1003 b 1322 840 1046 1003 1222 940 l 1369 840 l 1369 1054 l 1322 1054 l 1307 918 b 831 1054 1186 1010 1011 1054 b 133 521 460 1054 133 815 b 831 -11 133 228 460 -11 b 1307 124 1011 -11 1186 32 l 1322 -11 l 1369 -11 l 1369 203 l 1322 203 b 882 40 1222 103 1046 40 b 339 464 603 40 371 225 b 586 551 419 524 501 551 l 604 551 b 1039 464 757 551 868 464 b 1204 490 1089 464 1142 472 l 1213 375 l 1261 375 l 1261 654 l 1211 654 l 1204 547 b 1038 514 1144 524 1089 514 b 603 601 885 514 761 594 l 588 601 b 335 522 500 601 417 576 b 882 1003 336 788 582 1003 z "},"Ț":{"ha":1329,"x_min":0,"x_max":0,"o":"m 847 0 l 847 50 l 743 50 l 743 968 l 1192 968 l 1207 825 l 1257 825 l 1257 1018 l 28 1018 l 28 825 l 78 825 l 90 968 l 542 968 l 542 50 l 428 50 l 428 0 z m 703 -143 b 636 -79 703 -107 669 -79 b 576 -144 603 -79 576 -108 b 636 -207 576 -179 603 -207 l 646 -207 b 610 -281 640 -236 626 -267 l 631 -299 b 703 -151 679 -258 703 -190 z "},"ț":{"ha":1346,"x_min":0,"x_max":0,"o":"m 847 0 l 847 50 l 743 50 l 743 968 l 1192 968 l 1207 825 l 1257 825 l 1257 1018 l 28 1018 l 28 825 l 78 825 l 90 968 l 542 968 l 542 50 l 428 50 l 428 0 z m 710 -146 b 643 -82 710 -110 676 -82 b 583 -147 610 -82 583 -111 b 643 -210 583 -182 610 -210 l 653 -210 b 617 -283 647 -239 633 -269 l 638 -301 b 710 -154 686 -261 710 -193 z "},"©":{"ha":1157,"x_min":0,"x_max":0,"o":"m 990 467 b 865 156 990 343 949 239 b 554 31 783 72 679 31 b 243 156 429 31 325 72 b 118 469 160 240 118 344 b 242 781 118 593 160 697 b 554 906 325 864 429 906 b 867 779 679 906 783 864 b 990 467 949 696 990 592 z m 575 186 b 749 210 607 186 664 194 l 749 246 b 751 356 749 279 750 315 l 724 358 b 576 225 708 269 658 225 b 428 294 517 225 467 249 b 368 471 388 342 368 400 b 424 642 368 539 386 596 b 571 711 461 688 511 711 b 722 572 656 711 706 665 l 750 575 b 744 728 746 619 744 671 b 574 750 653 743 596 750 b 358 671 485 750 413 724 b 278 467 304 618 278 550 b 357 265 278 385 304 318 b 575 186 411 213 483 186 z m 554 -14 b 900 124 693 -14 808 32 b 1039 468 993 215 1039 331 b 901 813 1039 606 993 721 b 554 950 810 904 694 950 b 207 813 415 950 300 904 b 69 468 115 721 69 606 b 207 124 69 331 115 215 b 554 -14 299 32 414 -14 z "},"®":{"ha":756,"x_min":0,"x_max":0,"o":"m 532 453 b 594 464 550 453 571 457 l 590 481 b 579 479 588 479 583 479 b 503 556 556 479 531 504 b 429 635 475 604 458 628 l 429 638 b 526 732 483 643 526 678 b 396 819 526 790 483 819 b 286 813 369 819 315 813 b 229 814 263 813 243 813 l 229 794 b 268 768 251 794 264 786 b 272 638 271 754 272 711 b 269 503 272 561 271 515 b 228 478 268 481 260 478 l 228 458 b 307 460 247 460 274 460 b 388 458 342 460 369 460 l 388 478 b 344 508 356 478 346 482 b 342 615 343 524 342 558 b 356 626 342 622 346 626 b 386 611 368 626 379 621 b 429 539 394 601 408 578 b 532 453 464 471 481 453 z m 343 792 b 383 799 357 796 371 799 b 451 722 424 799 451 768 b 364 647 451 672 422 647 b 342 663 346 647 342 650 b 343 792 342 725 342 768 z m 169 411 b 396 322 229 351 306 322 b 621 411 486 322 561 351 b 711 636 681 471 711 546 b 621 860 711 726 681 800 b 394 950 561 919 485 950 b 168 860 304 950 228 919 b 79 636 108 800 79 726 b 169 411 79 546 110 471 z m 394 351 b 193 432 314 351 247 378 b 113 636 139 486 113 554 b 193 839 113 718 139 785 b 396 921 247 893 314 921 b 597 839 476 921 543 893 b 678 636 651 785 678 718 b 597 432 678 554 651 486 b 394 351 543 378 476 351 z "},"‚":{"ha":246,"x_min":0,"x_max":0,"o":"m 165 65 b 99 129 165 101 132 129 b 39 64 65 129 39 100 b 99 1 39 29 65 1 l 108 1 b 72 -72 103 -28 89 -58 l 93 -90 b 165 57 142 -50 165 18 z "},"„":{"ha":400,"x_min":0,"x_max":0,"o":"m 165 65 b 99 129 165 101 132 129 b 39 64 65 129 39 100 b 99 1 39 29 65 1 l 108 1 b 72 -72 103 -28 89 -58 l 93 -90 b 165 57 142 -50 165 18 z m 343 65 b 276 129 343 101 310 129 b 217 64 243 129 217 100 b 276 1 217 29 243 1 l 286 1 b 250 -72 281 -28 267 -58 l 271 -90 b 343 57 319 -50 343 18 z "},"“":{"ha":511,"x_min":0,"x_max":0,"o":"m 289 1033 b 356 969 289 997 322 969 b 415 1035 389 969 415 999 b 356 1097 415 1069 389 1097 l 346 1097 b 382 1171 351 1126 365 1157 l 361 1189 b 289 1042 313 1149 289 1081 z m 111 1033 b 178 969 111 997 144 969 b 238 1035 211 969 238 999 b 178 1097 238 1069 211 1097 l 168 1097 b 204 1171 174 1126 188 1157 l 183 1189 b 111 1042 135 1149 111 1081 z "},"‘":{"ha":308,"x_min":0,"x_max":0,"o":"m 108 1056 b 175 992 108 1019 142 992 b 235 1057 208 992 235 1021 b 175 1119 235 1092 208 1119 l 165 1119 b 201 1193 171 1149 185 1179 l 181 1211 b 108 1064 132 1171 108 1103 z "},"–":{"ha":1308,"x_min":0,"x_max":0,"o":"m 1142 501 l 1142 551 l 106 551 l 106 501 z "},"—":{"ha":1782,"x_min":0,"x_max":0,"o":"m 1475 501 l 1475 551 l 106 551 l 106 501 z "},"¼":{"ha":1606,"x_min":0,"x_max":0,"o":"m 500 488 l 500 515 l 447 515 l 447 1047 l 271 1032 l 271 1003 l 336 1008 l 336 515 l 279 515 l 279 488 z m 1436 0 l 1436 28 l 1371 28 l 1371 138 l 1447 138 l 1447 165 l 1371 165 l 1371 590 l 840 138 l 1261 138 l 1261 28 l 1190 28 l 1190 0 z m 915 165 l 1261 460 l 1261 165 z m 1036 1147 l 981 1147 l 494 -78 l 550 -78 z "},"½":{"ha":1599,"x_min":0,"x_max":0,"o":"m 974 433 b 1203 528 1067 504 1143 528 b 1361 425 1308 528 1361 453 l 1361 418 b 901 26 1361 254 990 82 l 901 0 l 1479 0 l 1479 92 l 1451 92 l 1446 26 l 1071 26 l 1083 32 b 1456 397 1156 71 1456 228 b 1258 563 1456 543 1318 563 l 1247 563 b 958 464 1067 563 958 464 z m 500 488 l 500 515 l 447 515 l 447 1047 l 271 1032 l 271 1003 l 336 1008 l 336 515 l 279 515 l 279 488 z m 1036 1147 l 981 1147 l 494 -78 l 550 -78 z "},"…":{"ha":1111,"x_min":0,"x_max":0,"o":"m 107 61 b 168 0 107 28 135 0 b 235 61 207 0 235 28 b 168 128 235 99 207 128 b 107 61 135 128 107 99 z m 443 61 b 504 0 443 28 471 0 b 571 61 543 0 571 28 b 504 128 571 99 543 128 b 443 61 471 128 443 99 z m 779 61 b 840 0 779 28 807 0 b 907 61 879 0 907 28 b 840 128 907 99 879 128 b 779 61 807 128 779 99 z "},"+":{"ha":740,"x_min":0,"x_max":0,"o":"m 389 506 l 610 506 l 610 556 l 389 556 l 389 774 l 339 774 l 339 556 l 121 556 l 121 506 l 339 506 l 339 285 l 389 285 z "},"°":{"ha":568,"x_min":0,"x_max":0,"o":"m 485 844 b 274 1056 485 961 390 1056 b 63 844 157 1056 63 961 b 274 633 63 728 157 633 b 485 844 390 633 485 728 z m 275 999 b 425 843 358 999 425 929 b 275 688 425 757 358 688 b 125 843 193 688 125 757 b 275 999 125 929 193 999 z "},"±":{"ha":1157,"x_min":0,"x_max":0,"o":""}}}
